<svg xmlns="http://www.w3.org/2000/svg" xmlns:xlink="http://www.w3.org/1999/xlink" width="380" zoomAndPan="magnify" viewBox="0 0 285 67.499998" height="90" preserveAspectRatio="xMidYMid meet" version="1.0"><defs><clipPath id="193b87bf5a"><path d="M 5 3 L 280 3 L 280 63 L 5 63 Z M 5 3 " clip-rule="nonzero"/></clipPath><clipPath id="744cad50c6"><path d="M 18.992188 3.679688 L 266.007812 3.679688 C 266.882812 3.679688 267.75 3.765625 268.605469 3.9375 C 269.464844 4.105469 270.296875 4.355469 271.101562 4.691406 C 271.910156 5.023438 272.679688 5.429688 273.40625 5.914062 C 274.132812 6.398438 274.804688 6.945312 275.421875 7.5625 C 276.039062 8.175781 276.59375 8.847656 277.078125 9.570312 C 277.5625 10.292969 277.972656 11.058594 278.308594 11.863281 C 278.640625 12.664062 278.894531 13.496094 279.066406 14.347656 C 279.234375 15.199219 279.320312 16.0625 279.320312 16.933594 L 279.320312 49.328125 C 279.320312 50.195312 279.234375 51.058594 279.066406 51.910156 C 278.894531 52.765625 278.640625 53.59375 278.308594 54.398438 C 277.972656 55.203125 277.5625 55.964844 277.078125 56.6875 C 276.59375 57.410156 276.039062 58.082031 275.421875 58.695312 C 274.804688 59.3125 274.132812 59.863281 273.40625 60.34375 C 272.679688 60.828125 271.910156 61.238281 271.101562 61.570312 C 270.296875 61.902344 269.464844 62.152344 268.605469 62.324219 C 267.75 62.492188 266.882812 62.578125 266.007812 62.578125 L 18.992188 62.578125 C 18.117188 62.578125 17.25 62.492188 16.394531 62.324219 C 15.535156 62.152344 14.703125 61.902344 13.898438 61.570312 C 13.089844 61.238281 12.320312 60.828125 11.59375 60.34375 C 10.867188 59.863281 10.195312 59.3125 9.578125 58.695312 C 8.960938 58.082031 8.40625 57.410156 7.921875 56.6875 C 7.4375 55.964844 7.027344 55.203125 6.691406 54.398438 C 6.359375 53.59375 6.105469 52.765625 5.933594 51.910156 C 5.765625 51.058594 5.679688 50.195312 5.679688 49.328125 L 5.679688 16.933594 C 5.679688 16.0625 5.765625 15.199219 5.933594 14.347656 C 6.105469 13.496094 6.359375 12.664062 6.691406 11.863281 C 7.027344 11.058594 7.4375 10.292969 7.921875 9.570312 C 8.40625 8.847656 8.960938 8.175781 9.578125 7.5625 C 10.195312 6.945312 10.867188 6.398438 11.59375 5.914062 C 12.320312 5.429688 13.089844 5.023438 13.898438 4.691406 C 14.703125 4.355469 15.535156 4.105469 16.394531 3.9375 C 17.25 3.765625 18.117188 3.679688 18.992188 3.679688 Z M 18.992188 3.679688 " clip-rule="nonzero"/></clipPath><linearGradient x1="0" gradientTransform="matrix(273.642292, 0, 0, 58.89706, 5.678859, 3.681069)" y1="-0.0000000450761" x2="0" gradientUnits="userSpaceOnUse" y2="1" id="6e106e7d7f"><stop stop-opacity="1" stop-color="rgb(16.468811%, 29.798889%, 46.669006%)" offset="0"/><stop stop-opacity="1" stop-color="rgb(16.419983%, 29.710388%, 46.536255%)" offset="0.015625"/><stop stop-opacity="1" stop-color="rgb(16.322327%, 29.53186%, 46.273804%)" offset="0.03125"/><stop stop-opacity="1" stop-color="rgb(16.22467%, 29.354858%, 46.009827%)" offset="0.046875"/><stop stop-opacity="1" stop-color="rgb(16.125488%, 29.177856%, 45.74585%)" offset="0.0625"/><stop stop-opacity="1" stop-color="rgb(16.027832%, 28.999329%, 45.481873%)" offset="0.078125"/><stop stop-opacity="1" stop-color="rgb(15.930176%, 28.822327%, 45.219421%)" offset="0.09375"/><stop stop-opacity="1" stop-color="rgb(15.83252%, 28.643799%, 44.955444%)" offset="0.109375"/><stop stop-opacity="1" stop-color="rgb(15.734863%, 28.466797%, 44.691467%)" offset="0.125"/><stop stop-opacity="1" stop-color="rgb(15.635681%, 28.288269%, 44.42749%)" offset="0.140625"/><stop stop-opacity="1" stop-color="rgb(15.538025%, 28.111267%, 44.165039%)" offset="0.15625"/><stop stop-opacity="1" stop-color="rgb(15.440369%, 27.934265%, 43.901062%)" offset="0.171875"/><stop stop-opacity="1" stop-color="rgb(15.342712%, 27.755737%, 43.637085%)" offset="0.1875"/><stop stop-opacity="1" stop-color="rgb(15.245056%, 27.578735%, 43.373108%)" offset="0.203125"/><stop stop-opacity="1" stop-color="rgb(15.145874%, 27.400208%, 43.110657%)" offset="0.21875"/><stop stop-opacity="1" stop-color="rgb(15.048218%, 27.223206%, 42.84668%)" offset="0.234375"/><stop stop-opacity="1" stop-color="rgb(14.950562%, 27.044678%, 42.582703%)" offset="0.25"/><stop stop-opacity="1" stop-color="rgb(14.852905%, 26.867676%, 42.318726%)" offset="0.265625"/><stop stop-opacity="1" stop-color="rgb(14.755249%, 26.690674%, 42.056274%)" offset="0.28125"/><stop stop-opacity="1" stop-color="rgb(14.656067%, 26.512146%, 41.792297%)" offset="0.296875"/><stop stop-opacity="1" stop-color="rgb(14.558411%, 26.335144%, 41.52832%)" offset="0.3125"/><stop stop-opacity="1" stop-color="rgb(14.460754%, 26.156616%, 41.264343%)" offset="0.328125"/><stop stop-opacity="1" stop-color="rgb(14.363098%, 25.979614%, 41.001892%)" offset="0.34375"/><stop stop-opacity="1" stop-color="rgb(14.265442%, 25.801086%, 40.737915%)" offset="0.359375"/><stop stop-opacity="1" stop-color="rgb(14.16626%, 25.624084%, 40.473938%)" offset="0.375"/><stop stop-opacity="1" stop-color="rgb(14.068604%, 25.447083%, 40.209961%)" offset="0.390625"/><stop stop-opacity="1" stop-color="rgb(13.970947%, 25.268555%, 39.94751%)" offset="0.40625"/><stop stop-opacity="1" stop-color="rgb(13.873291%, 25.091553%, 39.683533%)" offset="0.421875"/><stop stop-opacity="1" stop-color="rgb(13.775635%, 24.913025%, 39.419556%)" offset="0.4375"/><stop stop-opacity="1" stop-color="rgb(13.676453%, 24.736023%, 39.155579%)" offset="0.453125"/><stop stop-opacity="1" stop-color="rgb(13.578796%, 24.557495%, 38.893127%)" offset="0.46875"/><stop stop-opacity="1" stop-color="rgb(13.48114%, 24.380493%, 38.62915%)" offset="0.484375"/><stop stop-opacity="1" stop-color="rgb(13.383484%, 24.203491%, 38.365173%)" offset="0.5"/><stop stop-opacity="1" stop-color="rgb(13.285828%, 24.024963%, 38.101196%)" offset="0.515625"/><stop stop-opacity="1" stop-color="rgb(13.186646%, 23.847961%, 37.838745%)" offset="0.53125"/><stop stop-opacity="1" stop-color="rgb(13.088989%, 23.669434%, 37.574768%)" offset="0.546875"/><stop stop-opacity="1" stop-color="rgb(12.991333%, 23.492432%, 37.310791%)" offset="0.5625"/><stop stop-opacity="1" stop-color="rgb(12.893677%, 23.313904%, 37.046814%)" offset="0.578125"/><stop stop-opacity="1" stop-color="rgb(12.794495%, 23.136902%, 36.784363%)" offset="0.59375"/><stop stop-opacity="1" stop-color="rgb(12.696838%, 22.9599%, 36.520386%)" offset="0.609375"/><stop stop-opacity="1" stop-color="rgb(12.599182%, 22.781372%, 36.256409%)" offset="0.625"/><stop stop-opacity="1" stop-color="rgb(12.501526%, 22.60437%, 35.992432%)" offset="0.640625"/><stop stop-opacity="1" stop-color="rgb(12.40387%, 22.425842%, 35.72998%)" offset="0.65625"/><stop stop-opacity="1" stop-color="rgb(12.304688%, 22.24884%, 35.466003%)" offset="0.671875"/><stop stop-opacity="1" stop-color="rgb(12.207031%, 22.070312%, 35.202026%)" offset="0.6875"/><stop stop-opacity="1" stop-color="rgb(12.109375%, 21.893311%, 34.938049%)" offset="0.703125"/><stop stop-opacity="1" stop-color="rgb(12.011719%, 21.716309%, 34.675598%)" offset="0.71875"/><stop stop-opacity="1" stop-color="rgb(11.914062%, 21.537781%, 34.411621%)" offset="0.734375"/><stop stop-opacity="1" stop-color="rgb(11.81488%, 21.360779%, 34.147644%)" offset="0.75"/><stop stop-opacity="1" stop-color="rgb(11.717224%, 21.182251%, 33.883667%)" offset="0.765625"/><stop stop-opacity="1" stop-color="rgb(11.619568%, 21.005249%, 33.621216%)" offset="0.78125"/><stop stop-opacity="1" stop-color="rgb(11.521912%, 20.826721%, 33.357239%)" offset="0.796875"/><stop stop-opacity="1" stop-color="rgb(11.424255%, 20.649719%, 33.093262%)" offset="0.8125"/><stop stop-opacity="1" stop-color="rgb(11.325073%, 20.472717%, 32.829285%)" offset="0.828125"/><stop stop-opacity="1" stop-color="rgb(11.227417%, 20.294189%, 32.566833%)" offset="0.84375"/><stop stop-opacity="1" stop-color="rgb(11.129761%, 20.117188%, 32.302856%)" offset="0.859375"/><stop stop-opacity="1" stop-color="rgb(11.032104%, 19.93866%, 32.038879%)" offset="0.875"/><stop stop-opacity="1" stop-color="rgb(10.934448%, 19.761658%, 31.774902%)" offset="0.890625"/><stop stop-opacity="1" stop-color="rgb(10.835266%, 19.58313%, 31.512451%)" offset="0.90625"/><stop stop-opacity="1" stop-color="rgb(10.73761%, 19.406128%, 31.248474%)" offset="0.921875"/><stop stop-opacity="1" stop-color="rgb(10.639954%, 19.229126%, 30.984497%)" offset="0.9375"/><stop stop-opacity="1" stop-color="rgb(10.542297%, 19.050598%, 30.72052%)" offset="0.953125"/><stop stop-opacity="1" stop-color="rgb(10.444641%, 18.873596%, 30.458069%)" offset="0.96875"/><stop stop-opacity="1" stop-color="rgb(10.345459%, 18.695068%, 30.194092%)" offset="0.984375"/><stop stop-opacity="1" stop-color="rgb(10.247803%, 18.518066%, 29.930115%)" offset="1"/></linearGradient><clipPath id="f6e978320d"><path d="M 1.046875 0 L 283.953125 0 L 283.953125 66.257812 L 1.046875 66.257812 Z M 1.046875 0 " clip-rule="nonzero"/></clipPath></defs><g clip-path="url(#193b87bf5a)"><g clip-path="url(#744cad50c6)"><path fill="url(#6e106e7d7f)" d="M 5.679688 3.679688 L 5.679688 62.578125 L 279.320312 62.578125 L 279.320312 3.679688 Z M 5.679688 3.679688 " fill-rule="nonzero"/></g></g><g clip-path="url(#f6e978320d)"><path stroke-linecap="butt" transform="matrix(0.739574, 0, 0, 0.736213, 1.98099, 0)" fill="none" stroke-linejoin="miter" d="M 23.001355 4.998127 L 356.998658 4.998127 C 358.181772 4.998127 359.354323 5.114857 360.511028 5.348315 C 361.673015 5.576467 362.79803 5.916043 363.886072 6.372347 C 364.979396 6.823346 366.019902 7.375156 367.00231 8.033084 C 367.984717 8.691012 368.893179 9.433833 369.727697 10.27216 C 370.562215 11.105181 371.312225 12.017791 371.967163 12.999376 C 372.622101 13.980962 373.176686 15.020912 373.630917 16.113921 C 374.079867 17.201624 374.423181 18.331773 374.655578 19.488453 C 374.882694 20.645132 374.998893 21.817729 374.998893 23.000937 L 374.998893 67.002499 C 374.998893 68.180402 374.882694 69.352998 374.655578 70.509678 C 374.423181 71.671663 374.079867 72.796507 373.630917 73.889515 C 373.176686 74.982524 372.622101 76.017168 371.967163 76.998754 C 371.312225 77.98034 370.562215 78.892949 369.727697 79.72597 C 368.893179 80.564297 367.984717 81.312425 367.00231 81.965046 C 366.019902 82.622974 364.979396 83.18009 363.886072 83.631089 C 362.79803 84.082088 361.673015 84.421663 360.511028 84.655121 C 359.354323 84.883274 358.181772 85.000003 356.998658 85.000003 L 23.001355 85.000003 C 21.818241 85.000003 20.645691 84.883274 19.488986 84.655121 C 18.326999 84.421663 17.201984 84.082088 16.113942 83.631089 C 15.020618 83.18009 13.980111 82.622974 12.997704 81.965046 C 12.015297 81.312425 11.106834 80.564297 10.272316 79.72597 C 9.437798 78.892949 8.687789 77.98034 8.032851 76.998754 C 7.377912 76.017168 6.823328 74.982524 6.369097 73.889515 C 5.920147 72.796507 5.576833 71.671663 5.344435 70.509678 C 5.11732 69.352998 5.001121 68.180402 5.001121 67.002499 L 5.001121 23.000937 C 5.001121 21.817729 5.11732 20.645132 5.344435 19.488453 C 5.576833 18.331773 5.920147 17.201624 6.369097 16.113921 C 6.823328 15.020912 7.377912 13.980962 8.032851 12.999376 C 8.687789 12.017791 9.437798 11.105181 10.272316 10.27216 C 11.106834 9.433833 12.015297 8.691012 12.997704 8.033084 C 13.980111 7.375156 15.020618 6.823346 16.113942 6.372347 C 17.201984 5.916043 18.326999 5.576467 19.488986 5.348315 C 20.645691 5.114857 21.818241 4.998127 23.001355 4.998127 Z M 23.001355 4.998127 " stroke="#6aa4e0" stroke-width="3" stroke-opacity="1" stroke-miterlimit="4"/></g></svg>