<svg xmlns="http://www.w3.org/2000/svg" xmlns:xlink="http://www.w3.org/1999/xlink" width="48" zoomAndPan="magnify" viewBox="0 0 36 36.000001" height="48" preserveAspectRatio="xMidYMid meet" version="1.0"><defs><clipPath id="c5ef22ebb9"><path d="M 3 2 L 33 2 L 33 33 L 3 33 Z M 3 2 " clip-rule="nonzero"/></clipPath><clipPath id="da2451158f"><path d="M 32.59375 17.511719 C 32.59375 18.472656 32.5 19.421875 32.3125 20.359375 C 32.128906 21.300781 31.851562 22.214844 31.484375 23.097656 C 31.117188 23.984375 30.667969 24.824219 30.136719 25.621094 C 29.601562 26.417969 28.996094 27.15625 28.320312 27.832031 C 27.640625 28.511719 26.90625 29.117188 26.109375 29.648438 C 25.3125 30.179688 24.46875 30.628906 23.585938 30.996094 C 22.699219 31.363281 21.789062 31.640625 20.847656 31.828125 C 19.90625 32.015625 18.957031 32.109375 18 32.109375 C 17.042969 32.109375 16.09375 32.015625 15.152344 31.828125 C 14.210938 31.640625 13.300781 31.363281 12.414062 30.996094 C 11.53125 30.628906 10.6875 30.179688 9.890625 29.648438 C 9.09375 29.117188 8.359375 28.511719 7.679688 27.832031 C 7.003906 27.15625 6.398438 26.417969 5.863281 25.621094 C 5.332031 24.824219 4.882812 23.984375 4.515625 23.097656 C 4.148438 22.214844 3.871094 21.300781 3.6875 20.359375 C 3.5 19.421875 3.40625 18.472656 3.40625 17.511719 C 3.40625 16.554688 3.5 15.605469 3.6875 14.667969 C 3.871094 13.726562 4.148438 12.8125 4.515625 11.929688 C 4.882812 11.042969 5.332031 10.203125 5.863281 9.40625 C 6.398438 8.609375 7.003906 7.871094 7.679688 7.195312 C 8.359375 6.515625 9.09375 5.910156 9.890625 5.378906 C 10.6875 4.847656 11.53125 4.398438 12.414062 4.03125 C 13.300781 3.664062 14.210938 3.386719 15.152344 3.199219 C 16.09375 3.011719 17.042969 2.917969 18 2.917969 C 18.957031 2.917969 19.90625 3.011719 20.847656 3.199219 C 21.789062 3.386719 22.699219 3.664062 23.585938 4.03125 C 24.46875 4.398438 25.3125 4.847656 26.109375 5.378906 C 26.90625 5.910156 27.640625 6.515625 28.320312 7.195312 C 28.996094 7.871094 29.601562 8.609375 30.136719 9.40625 C 30.667969 10.203125 31.117188 11.042969 31.484375 11.929688 C 31.851562 12.8125 32.128906 13.726562 32.3125 14.667969 C 32.5 15.605469 32.59375 16.554688 32.59375 17.511719 Z M 32.59375 17.511719 " clip-rule="nonzero"/></clipPath><linearGradient x1="0" gradientTransform="matrix(29.18919, 0, 0, 29.18919, 3.405405, 2.918921)" y1="-0.00000000416667" x2="0" gradientUnits="userSpaceOnUse" y2="1" id="4117df04c5"><stop stop-opacity="1" stop-color="rgb(100%, 88.62915%, 47.839355%)" offset="0"/><stop stop-opacity="1" stop-color="rgb(99.967957%, 88.531494%, 47.680664%)" offset="0.0078125"/><stop stop-opacity="1" stop-color="rgb(99.906921%, 88.337708%, 47.363281%)" offset="0.015625"/><stop stop-opacity="1" stop-color="rgb(99.845886%, 88.143921%, 47.047424%)" offset="0.0234375"/><stop stop-opacity="1" stop-color="rgb(99.784851%, 87.950134%, 46.731567%)" offset="0.03125"/><stop stop-opacity="1" stop-color="rgb(99.723816%, 87.754822%, 46.414185%)" offset="0.0390625"/><stop stop-opacity="1" stop-color="rgb(99.661255%, 87.561035%, 46.098328%)" offset="0.046875"/><stop stop-opacity="1" stop-color="rgb(99.60022%, 87.367249%, 45.780945%)" offset="0.0546875"/><stop stop-opacity="1" stop-color="rgb(99.539185%, 87.173462%, 45.465088%)" offset="0.0625"/><stop stop-opacity="1" stop-color="rgb(99.478149%, 86.979675%, 45.147705%)" offset="0.0703125"/><stop stop-opacity="1" stop-color="rgb(99.417114%, 86.785889%, 44.831848%)" offset="0.078125"/><stop stop-opacity="1" stop-color="rgb(99.354553%, 86.592102%, 44.514465%)" offset="0.0859375"/><stop stop-opacity="1" stop-color="rgb(99.293518%, 86.39679%, 44.198608%)" offset="0.09375"/><stop stop-opacity="1" stop-color="rgb(99.232483%, 86.203003%, 43.882751%)" offset="0.101563"/><stop stop-opacity="1" stop-color="rgb(99.171448%, 86.009216%, 43.565369%)" offset="0.109375"/><stop stop-opacity="1" stop-color="rgb(99.110413%, 85.81543%, 43.249512%)" offset="0.117188"/><stop stop-opacity="1" stop-color="rgb(99.047852%, 85.621643%, 42.932129%)" offset="0.125"/><stop stop-opacity="1" stop-color="rgb(98.986816%, 85.427856%, 42.616272%)" offset="0.132812"/><stop stop-opacity="1" stop-color="rgb(98.925781%, 85.23407%, 42.298889%)" offset="0.140625"/><stop stop-opacity="1" stop-color="rgb(98.864746%, 85.038757%, 41.983032%)" offset="0.148438"/><stop stop-opacity="1" stop-color="rgb(98.803711%, 84.844971%, 41.665649%)" offset="0.15625"/><stop stop-opacity="1" stop-color="rgb(98.74115%, 84.651184%, 41.349792%)" offset="0.164062"/><stop stop-opacity="1" stop-color="rgb(98.680115%, 84.457397%, 41.033936%)" offset="0.171875"/><stop stop-opacity="1" stop-color="rgb(98.61908%, 84.263611%, 40.716553%)" offset="0.179688"/><stop stop-opacity="1" stop-color="rgb(98.558044%, 84.069824%, 40.400696%)" offset="0.1875"/><stop stop-opacity="1" stop-color="rgb(98.497009%, 83.876038%, 40.083313%)" offset="0.195312"/><stop stop-opacity="1" stop-color="rgb(98.435974%, 83.680725%, 39.767456%)" offset="0.203125"/><stop stop-opacity="1" stop-color="rgb(98.373413%, 83.486938%, 39.450073%)" offset="0.210937"/><stop stop-opacity="1" stop-color="rgb(98.312378%, 83.293152%, 39.134216%)" offset="0.21875"/><stop stop-opacity="1" stop-color="rgb(98.251343%, 83.099365%, 38.816833%)" offset="0.226562"/><stop stop-opacity="1" stop-color="rgb(98.190308%, 82.905579%, 38.500977%)" offset="0.234375"/><stop stop-opacity="1" stop-color="rgb(98.129272%, 82.711792%, 38.18512%)" offset="0.242187"/><stop stop-opacity="1" stop-color="rgb(98.066711%, 82.518005%, 37.867737%)" offset="0.25"/><stop stop-opacity="1" stop-color="rgb(98.005676%, 82.322693%, 37.55188%)" offset="0.257812"/><stop stop-opacity="1" stop-color="rgb(97.944641%, 82.128906%, 37.234497%)" offset="0.265625"/><stop stop-opacity="1" stop-color="rgb(97.883606%, 81.93512%, 36.91864%)" offset="0.273437"/><stop stop-opacity="1" stop-color="rgb(97.822571%, 81.741333%, 36.601257%)" offset="0.28125"/><stop stop-opacity="1" stop-color="rgb(97.76001%, 81.547546%, 36.2854%)" offset="0.289062"/><stop stop-opacity="1" stop-color="rgb(97.698975%, 81.35376%, 35.968018%)" offset="0.296875"/><stop stop-opacity="1" stop-color="rgb(97.637939%, 81.158447%, 35.652161%)" offset="0.304687"/><stop stop-opacity="1" stop-color="rgb(97.576904%, 80.964661%, 35.336304%)" offset="0.3125"/><stop stop-opacity="1" stop-color="rgb(97.515869%, 80.770874%, 35.018921%)" offset="0.320312"/><stop stop-opacity="1" stop-color="rgb(97.453308%, 80.577087%, 34.703064%)" offset="0.328125"/><stop stop-opacity="1" stop-color="rgb(97.392273%, 80.383301%, 34.385681%)" offset="0.335937"/><stop stop-opacity="1" stop-color="rgb(97.331238%, 80.189514%, 34.069824%)" offset="0.34375"/><stop stop-opacity="1" stop-color="rgb(97.270203%, 79.995728%, 33.752441%)" offset="0.351562"/><stop stop-opacity="1" stop-color="rgb(97.209167%, 79.800415%, 33.436584%)" offset="0.359375"/><stop stop-opacity="1" stop-color="rgb(97.146606%, 79.606628%, 33.119202%)" offset="0.367187"/><stop stop-opacity="1" stop-color="rgb(97.085571%, 79.412842%, 32.803345%)" offset="0.375"/><stop stop-opacity="1" stop-color="rgb(97.024536%, 79.219055%, 32.487488%)" offset="0.382812"/><stop stop-opacity="1" stop-color="rgb(96.963501%, 79.025269%, 32.170105%)" offset="0.390625"/><stop stop-opacity="1" stop-color="rgb(96.902466%, 78.831482%, 31.854248%)" offset="0.398437"/><stop stop-opacity="1" stop-color="rgb(96.841431%, 78.637695%, 31.536865%)" offset="0.40625"/><stop stop-opacity="1" stop-color="rgb(96.77887%, 78.442383%, 31.221008%)" offset="0.414062"/><stop stop-opacity="1" stop-color="rgb(96.717834%, 78.248596%, 30.903625%)" offset="0.421875"/><stop stop-opacity="1" stop-color="rgb(96.656799%, 78.05481%, 30.587769%)" offset="0.429687"/><stop stop-opacity="1" stop-color="rgb(96.595764%, 77.861023%, 30.270386%)" offset="0.4375"/><stop stop-opacity="1" stop-color="rgb(96.534729%, 77.667236%, 29.954529%)" offset="0.445312"/><stop stop-opacity="1" stop-color="rgb(96.472168%, 77.47345%, 29.638672%)" offset="0.453125"/><stop stop-opacity="1" stop-color="rgb(96.411133%, 77.279663%, 29.321289%)" offset="0.460937"/><stop stop-opacity="1" stop-color="rgb(96.350098%, 77.084351%, 29.005432%)" offset="0.46875"/><stop stop-opacity="1" stop-color="rgb(96.289062%, 76.890564%, 28.688049%)" offset="0.476562"/><stop stop-opacity="1" stop-color="rgb(96.228027%, 76.696777%, 28.372192%)" offset="0.484375"/><stop stop-opacity="1" stop-color="rgb(96.165466%, 76.502991%, 28.05481%)" offset="0.492187"/><stop stop-opacity="1" stop-color="rgb(96.104431%, 76.309204%, 27.738953%)" offset="0.5"/><stop stop-opacity="1" stop-color="rgb(96.043396%, 76.115417%, 27.42157%)" offset="0.507812"/><stop stop-opacity="1" stop-color="rgb(95.982361%, 75.921631%, 27.105713%)" offset="0.515625"/><stop stop-opacity="1" stop-color="rgb(95.921326%, 75.726318%, 26.789856%)" offset="0.523438"/><stop stop-opacity="1" stop-color="rgb(95.858765%, 75.532532%, 26.472473%)" offset="0.53125"/><stop stop-opacity="1" stop-color="rgb(95.797729%, 75.338745%, 26.156616%)" offset="0.539062"/><stop stop-opacity="1" stop-color="rgb(95.736694%, 75.144958%, 25.839233%)" offset="0.546875"/><stop stop-opacity="1" stop-color="rgb(95.675659%, 74.951172%, 25.523376%)" offset="0.554688"/><stop stop-opacity="1" stop-color="rgb(95.614624%, 74.757385%, 25.205994%)" offset="0.5625"/><stop stop-opacity="1" stop-color="rgb(95.552063%, 74.562073%, 24.890137%)" offset="0.570312"/><stop stop-opacity="1" stop-color="rgb(95.491028%, 74.368286%, 24.572754%)" offset="0.578125"/><stop stop-opacity="1" stop-color="rgb(95.429993%, 74.1745%, 24.256897%)" offset="0.585938"/><stop stop-opacity="1" stop-color="rgb(95.368958%, 73.980713%, 23.94104%)" offset="0.59375"/><stop stop-opacity="1" stop-color="rgb(95.294189%, 73.780823%, 23.63739%)" offset="0.601562"/><stop stop-opacity="1" stop-color="rgb(95.149231%, 73.545837%, 23.400879%)" offset="0.609375"/><stop stop-opacity="1" stop-color="rgb(94.950867%, 73.286438%, 23.216248%)" offset="0.617188"/><stop stop-opacity="1" stop-color="rgb(94.750977%, 73.025513%, 23.033142%)" offset="0.625"/><stop stop-opacity="1" stop-color="rgb(94.552612%, 72.764587%, 22.848511%)" offset="0.632812"/><stop stop-opacity="1" stop-color="rgb(94.354248%, 72.503662%, 22.665405%)" offset="0.640625"/><stop stop-opacity="1" stop-color="rgb(94.154358%, 72.244263%, 22.480774%)" offset="0.648438"/><stop stop-opacity="1" stop-color="rgb(93.955994%, 71.983337%, 22.297668%)" offset="0.65625"/><stop stop-opacity="1" stop-color="rgb(93.756104%, 71.722412%, 22.113037%)" offset="0.664062"/><stop stop-opacity="1" stop-color="rgb(93.557739%, 71.461487%, 21.929932%)" offset="0.671875"/><stop stop-opacity="1" stop-color="rgb(93.357849%, 71.202087%, 21.746826%)" offset="0.679688"/><stop stop-opacity="1" stop-color="rgb(93.159485%, 70.941162%, 21.562195%)" offset="0.6875"/><stop stop-opacity="1" stop-color="rgb(92.959595%, 70.680237%, 21.379089%)" offset="0.695312"/><stop stop-opacity="1" stop-color="rgb(92.76123%, 70.419312%, 21.194458%)" offset="0.703125"/><stop stop-opacity="1" stop-color="rgb(92.562866%, 70.159912%, 21.011353%)" offset="0.710938"/><stop stop-opacity="1" stop-color="rgb(92.362976%, 69.898987%, 20.826721%)" offset="0.71875"/><stop stop-opacity="1" stop-color="rgb(92.164612%, 69.638062%, 20.643616%)" offset="0.726562"/><stop stop-opacity="1" stop-color="rgb(91.964722%, 69.377136%, 20.458984%)" offset="0.734375"/><stop stop-opacity="1" stop-color="rgb(91.766357%, 69.117737%, 20.275879%)" offset="0.742188"/><stop stop-opacity="1" stop-color="rgb(91.566467%, 68.856812%, 20.092773%)" offset="0.75"/><stop stop-opacity="1" stop-color="rgb(91.368103%, 68.595886%, 19.908142%)" offset="0.757812"/><stop stop-opacity="1" stop-color="rgb(91.169739%, 68.334961%, 19.725037%)" offset="0.765625"/><stop stop-opacity="1" stop-color="rgb(90.969849%, 68.074036%, 19.540405%)" offset="0.773438"/><stop stop-opacity="1" stop-color="rgb(90.771484%, 67.814636%, 19.3573%)" offset="0.78125"/><stop stop-opacity="1" stop-color="rgb(90.571594%, 67.553711%, 19.172668%)" offset="0.789063"/><stop stop-opacity="1" stop-color="rgb(90.37323%, 67.292786%, 18.989563%)" offset="0.796875"/><stop stop-opacity="1" stop-color="rgb(90.17334%, 67.03186%, 18.804932%)" offset="0.804688"/><stop stop-opacity="1" stop-color="rgb(89.974976%, 66.772461%, 18.621826%)" offset="0.8125"/><stop stop-opacity="1" stop-color="rgb(89.776611%, 66.511536%, 18.437195%)" offset="0.820313"/><stop stop-opacity="1" stop-color="rgb(89.576721%, 66.25061%, 18.254089%)" offset="0.828125"/><stop stop-opacity="1" stop-color="rgb(89.378357%, 65.989685%, 18.070984%)" offset="0.835938"/><stop stop-opacity="1" stop-color="rgb(89.178467%, 65.730286%, 17.886353%)" offset="0.84375"/><stop stop-opacity="1" stop-color="rgb(88.980103%, 65.46936%, 17.703247%)" offset="0.851562"/><stop stop-opacity="1" stop-color="rgb(88.780212%, 65.208435%, 17.518616%)" offset="0.859375"/><stop stop-opacity="1" stop-color="rgb(88.581848%, 64.94751%, 17.33551%)" offset="0.867188"/><stop stop-opacity="1" stop-color="rgb(88.383484%, 64.68811%, 17.150879%)" offset="0.875"/><stop stop-opacity="1" stop-color="rgb(88.183594%, 64.427185%, 16.967773%)" offset="0.882812"/><stop stop-opacity="1" stop-color="rgb(87.985229%, 64.16626%, 16.783142%)" offset="0.890625"/><stop stop-opacity="1" stop-color="rgb(87.785339%, 63.905334%, 16.600037%)" offset="0.898438"/><stop stop-opacity="1" stop-color="rgb(87.586975%, 63.645935%, 16.416931%)" offset="0.90625"/><stop stop-opacity="1" stop-color="rgb(87.387085%, 63.38501%, 16.2323%)" offset="0.914062"/><stop stop-opacity="1" stop-color="rgb(87.188721%, 63.124084%, 16.049194%)" offset="0.921875"/><stop stop-opacity="1" stop-color="rgb(86.990356%, 62.863159%, 15.864563%)" offset="0.929688"/><stop stop-opacity="1" stop-color="rgb(86.790466%, 62.60376%, 15.681458%)" offset="0.9375"/><stop stop-opacity="1" stop-color="rgb(86.592102%, 62.342834%, 15.496826%)" offset="0.945312"/><stop stop-opacity="1" stop-color="rgb(86.392212%, 62.081909%, 15.313721%)" offset="0.953125"/><stop stop-opacity="1" stop-color="rgb(86.193848%, 61.820984%, 15.129089%)" offset="0.960938"/><stop stop-opacity="1" stop-color="rgb(85.993958%, 61.561584%, 14.945984%)" offset="0.96875"/><stop stop-opacity="1" stop-color="rgb(85.795593%, 61.300659%, 14.762878%)" offset="0.976562"/><stop stop-opacity="1" stop-color="rgb(85.597229%, 61.039734%, 14.578247%)" offset="0.984375"/><stop stop-opacity="1" stop-color="rgb(85.397339%, 60.778809%, 14.395142%)" offset="0.992188"/><stop stop-opacity="1" stop-color="rgb(85.198975%, 60.519409%, 14.21051%)" offset="1"/></linearGradient><clipPath id="7444f890ef"><path d="M 0.488281 0 L 35.511719 0 L 35.511719 35.027344 L 0.488281 35.027344 Z M 0.488281 0 " clip-rule="nonzero"/></clipPath></defs><g clip-path="url(#c5ef22ebb9)"><g clip-path="url(#da2451158f)"><path fill="url(#4117df04c5)" d="M 3.40625 2.917969 L 3.40625 32.109375 L 32.59375 32.109375 L 32.59375 2.917969 Z M 3.40625 2.917969 " fill-rule="nonzero"/></g></g><g clip-path="url(#7444f890ef)"><path stroke-linecap="butt" transform="matrix(0.72973, 0, 0, 0.72973, 0.486486, 0.00000194595)" fill="none" stroke-linejoin="miter" d="M 43.998844 23.997538 C 43.998844 25.314378 43.870372 26.61516 43.613427 27.899882 C 43.361836 29.189957 42.981772 30.442561 42.478589 31.652342 C 41.975406 32.867475 41.35981 34.018372 40.631801 35.110386 C 39.898439 36.202399 39.068722 37.214118 38.142652 38.140189 C 37.211228 39.071612 36.204862 39.901329 35.112848 40.629338 C 34.020834 41.357347 32.864584 41.972944 31.654804 42.476126 C 30.439671 42.979309 29.19242 43.359373 27.902345 43.616317 C 26.61227 43.873262 25.311488 44.001734 24.000001 44.001734 C 22.688514 44.001734 21.387732 43.873262 20.097657 43.616317 C 18.807582 43.359373 17.560331 42.979309 16.345198 42.476126 C 15.135418 41.972944 13.979168 41.357347 12.887154 40.629338 C 11.79514 39.901329 10.788774 39.071612 9.85735 38.140189 C 8.93128 37.214118 8.101563 36.202399 7.368201 35.110386 C 6.640192 34.018372 6.024596 32.867475 5.521413 31.652342 C 5.01823 30.442561 4.638166 29.189957 4.386575 27.899882 C 4.12963 26.61516 4.001158 25.314378 4.001158 23.997538 C 4.001158 22.686051 4.12963 21.38527 4.386575 20.100547 C 4.638166 18.810472 5.01823 17.557868 5.521413 16.348088 C 6.024596 15.132955 6.640192 13.982058 7.368201 12.890044 C 8.101563 11.79803 8.93128 10.786311 9.85735 9.860241 C 10.788774 8.928817 11.79514 8.0991 12.887154 7.371091 C 13.979168 6.643082 15.135418 6.027486 16.345198 5.524303 C 17.560331 5.02112 18.807582 4.641056 20.097657 4.384112 C 21.387732 4.127168 22.688514 3.998695 24.000001 3.998695 C 25.311488 3.998695 26.61227 4.127168 27.902345 4.384112 C 29.19242 4.641056 30.439671 5.02112 31.654804 5.524303 C 32.864584 6.027486 34.020834 6.643082 35.112848 7.371091 C 36.204862 8.0991 37.211228 8.928817 38.142652 9.860241 C 39.068722 10.786311 39.898439 11.79803 40.631801 12.890044 C 41.35981 13.982058 41.975406 15.132955 42.478589 16.348088 C 42.981772 17.557868 43.361836 18.810472 43.613427 20.100547 C 43.870372 21.38527 43.998844 22.686051 43.998844 23.997538 Z M 43.998844 23.997538 " stroke="#a86f16" stroke-width="2" stroke-opacity="1" stroke-miterlimit="4"/><path stroke-linecap="butt" transform="matrix(0.72973, 0, 0, 0.72973, 0.486486, 0.00000194595)" fill="none" stroke-linejoin="miter" d="M 37.99812 23.997538 C 37.99812 24.918256 37.912472 25.828267 37.73047 26.732926 C 37.553821 27.632232 37.28617 28.510125 36.932872 29.355901 C 36.584926 30.207029 36.151332 31.015333 35.642796 31.775461 C 35.128907 32.540941 34.550782 33.247538 33.897715 33.900605 C 33.250001 34.54832 32.543404 35.131798 31.777924 35.640333 C 31.012443 36.148869 30.209492 36.582463 29.358363 36.935762 C 28.507235 37.283707 27.634694 37.551358 26.730036 37.73336 C 25.83073 37.910009 24.920719 38.001011 24.000001 38.001011 C 23.079283 38.001011 22.169272 37.910009 21.269966 37.73336 C 20.365308 37.551358 19.492767 37.283707 18.641639 36.935762 C 17.79051 36.582463 16.987559 36.148869 16.222078 35.640333 C 15.456598 35.131798 14.750001 34.54832 14.102287 33.900605 C 13.44922 33.247538 12.871095 32.540941 12.357206 31.775461 C 11.84867 31.015333 11.415076 30.207029 11.06713 29.355901 C 10.713832 28.510125 10.446181 27.632232 10.269532 26.732926 C 10.08753 25.828267 10.001882 24.918256 10.001882 23.997538 C 10.001882 23.082174 10.08753 22.172162 10.269532 21.267503 C 10.446181 20.368198 10.713832 19.490304 11.06713 18.644529 C 11.415076 17.7934 11.84867 16.985096 12.357206 16.219616 C 12.871095 15.459488 13.44922 14.752891 14.102287 14.099824 C 14.750001 13.45211 15.456598 12.868632 16.222078 12.360096 C 16.987559 11.846207 17.79051 11.417966 18.641639 11.064668 C 19.492767 10.711369 20.365308 10.449072 21.269966 10.267069 C 22.169272 10.09042 23.079283 9.999419 24.000001 9.999419 C 24.920719 9.999419 25.83073 10.09042 26.730036 10.267069 C 27.634694 10.449072 28.507235 10.711369 29.358363 11.064668 C 30.209492 11.417966 31.012443 11.846207 31.777924 12.360096 C 32.543404 12.868632 33.250001 13.45211 33.897715 14.099824 C 34.550782 14.752891 35.128907 15.459488 35.642796 16.219616 C 36.151332 16.985096 36.584926 17.7934 36.932872 18.644529 C 37.28617 19.490304 37.553821 20.368198 37.73047 21.267503 C 37.912472 22.172162 37.99812 23.082174 37.99812 23.997538 Z M 37.99812 23.997538 " stroke="#fff2b6" stroke-width="2" stroke-opacity="0.8" stroke-miterlimit="4"/></g></svg>