<svg xmlns="http://www.w3.org/2000/svg" xmlns:xlink="http://www.w3.org/1999/xlink" width="520" zoomAndPan="magnify" viewBox="0 0 390 48" height="64" preserveAspectRatio="xMidYMid meet" version="1.0"><defs><clipPath id="86131bfbed"><path d="M 40.582031 0 L 349.152344 0 L 349.152344 47.019531 L 40.582031 47.019531 Z M 40.582031 0 " clip-rule="nonzero"/></clipPath></defs><path fill="#173a60" d="M 53.925781 1.175781 L 335.808594 1.175781 C 336.5 1.175781 337.1875 1.242188 337.871094 1.378906 C 338.550781 1.515625 339.210938 1.714844 339.851562 1.980469 C 340.492188 2.246094 341.101562 2.574219 341.679688 2.957031 C 342.257812 3.34375 342.789062 3.78125 343.28125 4.273438 C 343.773438 4.765625 344.210938 5.300781 344.597656 5.878906 C 344.980469 6.453125 345.308594 7.066406 345.574219 7.707031 C 345.839844 8.347656 346.039062 9.011719 346.175781 9.691406 C 346.308594 10.371094 346.378906 11.058594 346.378906 11.753906 L 346.378906 35.265625 C 346.378906 35.960938 346.308594 36.648438 346.175781 37.328125 C 346.039062 38.011719 345.839844 38.671875 345.574219 39.3125 C 345.308594 39.957031 344.980469 40.566406 344.597656 41.144531 C 344.210938 41.71875 343.773438 42.253906 343.28125 42.746094 C 342.789062 43.238281 342.257812 43.675781 341.679688 44.0625 C 341.101562 44.449219 340.492188 44.773438 339.851562 45.039062 C 339.210938 45.304688 338.550781 45.507812 337.871094 45.640625 C 337.1875 45.777344 336.5 45.84375 335.808594 45.84375 L 53.925781 45.84375 C 53.230469 45.84375 52.542969 45.777344 51.863281 45.640625 C 51.183594 45.507812 50.523438 45.304688 49.878906 45.039062 C 49.238281 44.773438 48.628906 44.449219 48.054688 44.0625 C 47.476562 43.675781 46.941406 43.238281 46.453125 42.746094 C 45.960938 42.253906 45.523438 41.71875 45.136719 41.144531 C 44.75 40.566406 44.425781 39.957031 44.160156 39.3125 C 43.894531 38.671875 43.695312 38.011719 43.558594 37.328125 C 43.421875 36.648438 43.355469 35.960938 43.355469 35.265625 L 43.355469 11.753906 C 43.355469 11.058594 43.421875 10.371094 43.558594 9.691406 C 43.695312 9.011719 43.894531 8.347656 44.160156 7.707031 C 44.425781 7.066406 44.75 6.453125 45.136719 5.878906 C 45.523438 5.300781 45.960938 4.765625 46.453125 4.273438 C 46.941406 3.78125 47.476562 3.34375 48.054688 2.957031 C 48.628906 2.574219 49.238281 2.246094 49.878906 1.980469 C 50.523438 1.714844 51.183594 1.515625 51.863281 1.378906 C 52.542969 1.242188 53.230469 1.175781 53.925781 1.175781 Z M 53.925781 1.175781 " fill-opacity="1" fill-rule="nonzero"/><g clip-path="url(#86131bfbed)"><path stroke-linecap="butt" transform="matrix(0.587253, 0, 0, 0.587755, 42.180733, 0.00000195918)" fill="none" stroke-linejoin="miter" d="M 19.999995 2.000458 L 500.002679 2.000458 C 501.180037 2.000458 502.350743 2.113441 503.514797 2.346053 C 504.672199 2.578664 505.796343 2.917613 506.887228 3.369544 C 507.978113 3.821476 509.015784 4.379744 510.000241 5.031057 C 510.984698 5.689016 511.889334 6.433374 512.727453 7.270776 C 513.565572 8.108178 514.310567 9.018687 514.969089 10.002303 C 515.620959 10.979272 516.179705 12.022702 516.632023 13.112654 C 517.084341 14.202607 517.42358 15.332435 517.656391 16.488848 C 517.88255 17.645261 518.002281 18.814966 518.002281 19.997963 L 518.002281 60.000541 C 518.002281 61.183538 517.88255 62.353243 517.656391 63.509656 C 517.42358 64.672715 517.084341 65.795897 516.632023 66.88585 C 516.179705 67.982448 515.620959 69.019232 514.969089 70.002847 C 514.310567 70.979817 513.565572 71.890326 512.727453 72.727728 C 511.889334 73.56513 510.984698 74.309488 510.000241 74.967447 C 509.015784 75.625406 507.978113 76.177028 506.887228 76.62896 C 505.796343 77.080891 504.672199 77.426486 503.514797 77.652452 C 502.350743 77.885063 501.180037 77.998046 500.002679 77.998046 L 19.999995 77.998046 C 18.815986 77.998046 17.64528 77.885063 16.487878 77.652452 C 15.330475 77.426486 14.206332 77.080891 13.108795 76.62896 C 12.01791 76.177028 10.980239 75.625406 10.002434 74.967447 C 9.017977 74.309488 8.106689 73.56513 7.275221 72.727728 C 6.437102 71.890326 5.692108 70.979817 5.033586 70.002847 C 4.375064 69.019232 3.82297 67.982448 3.370651 66.88585 C 2.918333 65.795897 2.579095 64.672715 2.346284 63.509656 C 2.113473 62.353243 2.000393 61.183538 2.000393 60.000541 L 2.000393 19.997963 C 2.000393 18.814966 2.113473 17.645261 2.346284 16.488848 C 2.579095 15.332435 2.918333 14.202607 3.370651 13.112654 C 3.82297 12.022702 4.375064 10.979272 5.033586 10.002303 C 5.692108 9.018687 6.437102 8.108178 7.275221 7.270776 C 8.106689 6.433374 9.017977 5.689016 10.002434 5.031057 C 10.980239 4.379744 12.01791 3.821476 13.108795 3.369544 C 14.206332 2.917613 15.330475 2.578664 16.487878 2.346053 C 17.64528 2.113441 18.815986 2.000458 19.999995 2.000458 Z M 19.999995 2.000458 " stroke="#f7c74a" stroke-width="2" stroke-opacity="1" stroke-miterlimit="4"/></g></svg>