<svg xmlns="http://www.w3.org/2000/svg" xmlns:xlink="http://www.w3.org/1999/xlink" width="120" zoomAndPan="magnify" viewBox="0 0 90 89.999999" height="120" preserveAspectRatio="xMidYMid meet" version="1.0"><defs><clipPath id="d0f81aa3aa"><path d="M 7 7 L 83 7 L 83 83 L 7 83 Z M 7 7 " clip-rule="nonzero"/></clipPath><clipPath id="9e9a64c244"><path d="M 19.5 7.5 L 70.5 7.5 C 71.289062 7.5 72.066406 7.578125 72.839844 7.730469 C 73.613281 7.882812 74.363281 8.113281 75.09375 8.414062 C 75.820312 8.714844 76.511719 9.085938 77.167969 9.523438 C 77.820312 9.960938 78.429688 10.457031 78.984375 11.015625 C 79.542969 11.570312 80.039062 12.179688 80.476562 12.832031 C 80.914062 13.488281 81.285156 14.179688 81.585938 14.90625 C 81.886719 15.636719 82.117188 16.386719 82.269531 17.160156 C 82.421875 17.933594 82.5 18.710938 82.5 19.5 L 82.5 70.5 C 82.5 71.289062 82.421875 72.066406 82.269531 72.839844 C 82.117188 73.613281 81.886719 74.363281 81.585938 75.09375 C 81.285156 75.820312 80.914062 76.511719 80.476562 77.167969 C 80.039062 77.820312 79.542969 78.429688 78.984375 78.984375 C 78.429688 79.542969 77.820312 80.039062 77.167969 80.476562 C 76.511719 80.914062 75.820312 81.285156 75.09375 81.585938 C 74.363281 81.886719 73.613281 82.117188 72.839844 82.269531 C 72.066406 82.421875 71.289062 82.5 70.5 82.5 L 19.5 82.5 C 18.710938 82.5 17.933594 82.421875 17.160156 82.269531 C 16.386719 82.117188 15.636719 81.886719 14.90625 81.585938 C 14.179688 81.285156 13.488281 80.914062 12.832031 80.476562 C 12.179688 80.039062 11.570312 79.542969 11.015625 78.984375 C 10.457031 78.429688 9.960938 77.820312 9.523438 77.167969 C 9.085938 76.511719 8.714844 75.820312 8.414062 75.09375 C 8.113281 74.363281 7.882812 73.613281 7.730469 72.839844 C 7.578125 72.066406 7.5 71.289062 7.5 70.5 L 7.5 19.5 C 7.5 18.710938 7.578125 17.933594 7.730469 17.160156 C 7.882812 16.386719 8.113281 15.636719 8.414062 14.90625 C 8.714844 14.179688 9.085938 13.488281 9.523438 12.832031 C 9.960938 12.179688 10.457031 11.570312 11.015625 11.015625 C 11.570312 10.457031 12.179688 9.960938 12.832031 9.523438 C 13.488281 9.085938 14.179688 8.714844 14.90625 8.414062 C 15.636719 8.113281 16.386719 7.882812 17.160156 7.730469 C 17.933594 7.578125 18.710938 7.5 19.5 7.5 Z M 19.5 7.5 " clip-rule="nonzero"/></clipPath><linearGradient x1="0" gradientTransform="matrix(74.999999, 0, 0, 74.999999, 7.5, 7.500002)" y1="-0.00000000416667" x2="0" gradientUnits="userSpaceOnUse" y2="1" id="b3078fed6e"><stop stop-opacity="1" stop-color="rgb(16.859436%, 29.798889%, 49.409485%)" offset="0"/><stop stop-opacity="1" stop-color="rgb(16.778564%, 29.695129%, 49.243164%)" offset="0.03125"/><stop stop-opacity="1" stop-color="rgb(16.619873%, 29.486084%, 48.912048%)" offset="0.0625"/><stop stop-opacity="1" stop-color="rgb(16.461182%, 29.278564%, 48.580933%)" offset="0.09375"/><stop stop-opacity="1" stop-color="rgb(16.300964%, 29.071045%, 48.249817%)" offset="0.125"/><stop stop-opacity="1" stop-color="rgb(16.142273%, 28.862%, 47.918701%)" offset="0.15625"/><stop stop-opacity="1" stop-color="rgb(15.982056%, 28.65448%, 47.589111%)" offset="0.1875"/><stop stop-opacity="1" stop-color="rgb(15.823364%, 28.445435%, 47.257996%)" offset="0.21875"/><stop stop-opacity="1" stop-color="rgb(15.663147%, 28.237915%, 46.92688%)" offset="0.25"/><stop stop-opacity="1" stop-color="rgb(15.504456%, 28.030396%, 46.595764%)" offset="0.28125"/><stop stop-opacity="1" stop-color="rgb(15.344238%, 27.82135%, 46.264648%)" offset="0.3125"/><stop stop-opacity="1" stop-color="rgb(15.185547%, 27.613831%, 45.933533%)" offset="0.34375"/><stop stop-opacity="1" stop-color="rgb(15.02533%, 27.404785%, 45.602417%)" offset="0.375"/><stop stop-opacity="1" stop-color="rgb(14.866638%, 27.197266%, 45.271301%)" offset="0.40625"/><stop stop-opacity="1" stop-color="rgb(14.707947%, 26.989746%, 44.940186%)" offset="0.4375"/><stop stop-opacity="1" stop-color="rgb(14.547729%, 26.780701%, 44.610596%)" offset="0.46875"/><stop stop-opacity="1" stop-color="rgb(14.389038%, 26.573181%, 44.27948%)" offset="0.5"/><stop stop-opacity="1" stop-color="rgb(14.228821%, 26.364136%, 43.948364%)" offset="0.53125"/><stop stop-opacity="1" stop-color="rgb(14.070129%, 26.156616%, 43.617249%)" offset="0.5625"/><stop stop-opacity="1" stop-color="rgb(13.909912%, 25.949097%, 43.286133%)" offset="0.59375"/><stop stop-opacity="1" stop-color="rgb(13.751221%, 25.740051%, 42.955017%)" offset="0.625"/><stop stop-opacity="1" stop-color="rgb(13.591003%, 25.532532%, 42.623901%)" offset="0.65625"/><stop stop-opacity="1" stop-color="rgb(13.432312%, 25.323486%, 42.292786%)" offset="0.6875"/><stop stop-opacity="1" stop-color="rgb(13.273621%, 25.115967%, 41.963196%)" offset="0.71875"/><stop stop-opacity="1" stop-color="rgb(13.113403%, 24.908447%, 41.63208%)" offset="0.75"/><stop stop-opacity="1" stop-color="rgb(12.954712%, 24.699402%, 41.300964%)" offset="0.78125"/><stop stop-opacity="1" stop-color="rgb(12.794495%, 24.491882%, 40.969849%)" offset="0.8125"/><stop stop-opacity="1" stop-color="rgb(12.635803%, 24.284363%, 40.638733%)" offset="0.84375"/><stop stop-opacity="1" stop-color="rgb(12.475586%, 24.075317%, 40.307617%)" offset="0.875"/><stop stop-opacity="1" stop-color="rgb(12.316895%, 23.867798%, 39.976501%)" offset="0.90625"/><stop stop-opacity="1" stop-color="rgb(12.156677%, 23.658752%, 39.645386%)" offset="0.9375"/><stop stop-opacity="1" stop-color="rgb(11.997986%, 23.451233%, 39.31427%)" offset="0.96875"/><stop stop-opacity="1" stop-color="rgb(11.839294%, 23.243713%, 38.98468%)" offset="1"/></linearGradient><linearGradient x1="0" gradientTransform="matrix(99.000004, 0, 0, 99.000004, 10.5, 10.5)" y1="-0.00505051" x2="0" gradientUnits="userSpaceOnUse" y2="1.00505" id="0073104000"><stop stop-opacity="1" stop-color="rgb(23.529053%, 41.569519%, 65.098572%)" offset="0"/><stop stop-opacity="1" stop-color="rgb(23.472595%, 41.470337%, 64.955139%)" offset="0.015625"/><stop stop-opacity="1" stop-color="rgb(23.373413%, 41.297913%, 64.707947%)" offset="0.0234375"/><stop stop-opacity="1" stop-color="rgb(23.28949%, 41.152954%, 64.497375%)" offset="0.03125"/><stop stop-opacity="1" stop-color="rgb(23.205566%, 41.007996%, 64.286804%)" offset="0.0390625"/><stop stop-opacity="1" stop-color="rgb(23.123169%, 40.861511%, 64.076233%)" offset="0.046875"/><stop stop-opacity="1" stop-color="rgb(23.039246%, 40.716553%, 63.865662%)" offset="0.0546875"/><stop stop-opacity="1" stop-color="rgb(22.955322%, 40.571594%, 63.65509%)" offset="0.0625"/><stop stop-opacity="1" stop-color="rgb(22.871399%, 40.42511%, 63.444519%)" offset="0.0703125"/><stop stop-opacity="1" stop-color="rgb(22.787476%, 40.280151%, 63.233948%)" offset="0.078125"/><stop stop-opacity="1" stop-color="rgb(22.705078%, 40.135193%, 63.023376%)" offset="0.0859375"/><stop stop-opacity="1" stop-color="rgb(22.621155%, 39.988708%, 62.812805%)" offset="0.09375"/><stop stop-opacity="1" stop-color="rgb(22.537231%, 39.84375%, 62.60376%)" offset="0.101563"/><stop stop-opacity="1" stop-color="rgb(22.453308%, 39.698792%, 62.393188%)" offset="0.109375"/><stop stop-opacity="1" stop-color="rgb(22.370911%, 39.552307%, 62.182617%)" offset="0.117188"/><stop stop-opacity="1" stop-color="rgb(22.286987%, 39.407349%, 61.972046%)" offset="0.125"/><stop stop-opacity="1" stop-color="rgb(22.203064%, 39.26239%, 61.761475%)" offset="0.132813"/><stop stop-opacity="1" stop-color="rgb(22.119141%, 39.115906%, 61.550903%)" offset="0.140625"/><stop stop-opacity="1" stop-color="rgb(22.036743%, 38.970947%, 61.340332%)" offset="0.148438"/><stop stop-opacity="1" stop-color="rgb(21.95282%, 38.825989%, 61.129761%)" offset="0.15625"/><stop stop-opacity="1" stop-color="rgb(21.868896%, 38.68103%, 60.919189%)" offset="0.164063"/><stop stop-opacity="1" stop-color="rgb(21.784973%, 38.534546%, 60.708618%)" offset="0.171875"/><stop stop-opacity="1" stop-color="rgb(21.70105%, 38.389587%, 60.498047%)" offset="0.179688"/><stop stop-opacity="1" stop-color="rgb(21.618652%, 38.244629%, 60.287476%)" offset="0.1875"/><stop stop-opacity="1" stop-color="rgb(21.534729%, 38.098145%, 60.076904%)" offset="0.195313"/><stop stop-opacity="1" stop-color="rgb(21.450806%, 37.953186%, 59.866333%)" offset="0.203125"/><stop stop-opacity="1" stop-color="rgb(21.366882%, 37.808228%, 59.657288%)" offset="0.210938"/><stop stop-opacity="1" stop-color="rgb(21.284485%, 37.661743%, 59.446716%)" offset="0.21875"/><stop stop-opacity="1" stop-color="rgb(21.200562%, 37.516785%, 59.236145%)" offset="0.226563"/><stop stop-opacity="1" stop-color="rgb(21.116638%, 37.371826%, 59.025574%)" offset="0.234375"/><stop stop-opacity="1" stop-color="rgb(21.032715%, 37.225342%, 58.815002%)" offset="0.242188"/><stop stop-opacity="1" stop-color="rgb(20.950317%, 37.080383%, 58.604431%)" offset="0.25"/><stop stop-opacity="1" stop-color="rgb(20.866394%, 36.935425%, 58.39386%)" offset="0.257813"/><stop stop-opacity="1" stop-color="rgb(20.782471%, 36.78894%, 58.183289%)" offset="0.265625"/><stop stop-opacity="1" stop-color="rgb(20.698547%, 36.643982%, 57.972717%)" offset="0.273438"/><stop stop-opacity="1" stop-color="rgb(20.61615%, 36.499023%, 57.762146%)" offset="0.28125"/><stop stop-opacity="1" stop-color="rgb(20.532227%, 36.352539%, 57.551575%)" offset="0.289063"/><stop stop-opacity="1" stop-color="rgb(20.448303%, 36.207581%, 57.341003%)" offset="0.296875"/><stop stop-opacity="1" stop-color="rgb(20.36438%, 36.062622%, 57.130432%)" offset="0.304688"/><stop stop-opacity="1" stop-color="rgb(20.280457%, 35.917664%, 56.919861%)" offset="0.3125"/><stop stop-opacity="1" stop-color="rgb(20.198059%, 35.771179%, 56.710815%)" offset="0.320313"/><stop stop-opacity="1" stop-color="rgb(20.114136%, 35.626221%, 56.500244%)" offset="0.328125"/><stop stop-opacity="1" stop-color="rgb(20.030212%, 35.481262%, 56.289673%)" offset="0.335938"/><stop stop-opacity="1" stop-color="rgb(19.946289%, 35.334778%, 56.079102%)" offset="0.34375"/><stop stop-opacity="1" stop-color="rgb(19.863892%, 35.189819%, 55.86853%)" offset="0.351563"/><stop stop-opacity="1" stop-color="rgb(19.779968%, 35.044861%, 55.657959%)" offset="0.359375"/><stop stop-opacity="1" stop-color="rgb(19.696045%, 34.898376%, 55.447388%)" offset="0.367188"/><stop stop-opacity="1" stop-color="rgb(19.612122%, 34.753418%, 55.236816%)" offset="0.375"/><stop stop-opacity="1" stop-color="rgb(19.529724%, 34.608459%, 55.026245%)" offset="0.382813"/><stop stop-opacity="1" stop-color="rgb(19.445801%, 34.461975%, 54.815674%)" offset="0.390625"/><stop stop-opacity="1" stop-color="rgb(19.361877%, 34.317017%, 54.605103%)" offset="0.398438"/><stop stop-opacity="1" stop-color="rgb(19.277954%, 34.172058%, 54.394531%)" offset="0.40625"/><stop stop-opacity="1" stop-color="rgb(19.194031%, 34.025574%, 54.18396%)" offset="0.414063"/><stop stop-opacity="1" stop-color="rgb(19.111633%, 33.880615%, 53.973389%)" offset="0.421875"/><stop stop-opacity="1" stop-color="rgb(19.02771%, 33.735657%, 53.764343%)" offset="0.429688"/><stop stop-opacity="1" stop-color="rgb(18.943787%, 33.590698%, 53.553772%)" offset="0.4375"/><stop stop-opacity="1" stop-color="rgb(18.859863%, 33.444214%, 53.343201%)" offset="0.445313"/><stop stop-opacity="1" stop-color="rgb(18.777466%, 33.299255%, 53.132629%)" offset="0.453125"/><stop stop-opacity="1" stop-color="rgb(18.693542%, 33.154297%, 52.922058%)" offset="0.460938"/><stop stop-opacity="1" stop-color="rgb(18.609619%, 33.007812%, 52.711487%)" offset="0.46875"/><stop stop-opacity="1" stop-color="rgb(18.525696%, 32.862854%, 52.500916%)" offset="0.476563"/><stop stop-opacity="1" stop-color="rgb(18.443298%, 32.717896%, 52.290344%)" offset="0.484375"/><stop stop-opacity="1" stop-color="rgb(18.359375%, 32.571411%, 52.079773%)" offset="0.492188"/><stop stop-opacity="1" stop-color="rgb(18.275452%, 32.426453%, 51.869202%)" offset="0.5"/><stop stop-opacity="1" stop-color="rgb(18.191528%, 32.281494%, 51.65863%)" offset="0.507812"/><stop stop-opacity="1" stop-color="rgb(18.107605%, 32.13501%, 51.448059%)" offset="0.515625"/><stop stop-opacity="1" stop-color="rgb(18.025208%, 31.990051%, 51.237488%)" offset="0.523438"/><stop stop-opacity="1" stop-color="rgb(17.941284%, 31.845093%, 51.026917%)" offset="0.53125"/><stop stop-opacity="1" stop-color="rgb(17.857361%, 31.698608%, 50.816345%)" offset="0.539062"/><stop stop-opacity="1" stop-color="rgb(17.773438%, 31.55365%, 50.6073%)" offset="0.546875"/><stop stop-opacity="1" stop-color="rgb(17.69104%, 31.408691%, 50.396729%)" offset="0.554688"/><stop stop-opacity="1" stop-color="rgb(17.607117%, 31.262207%, 50.186157%)" offset="0.5625"/><stop stop-opacity="1" stop-color="rgb(17.523193%, 31.117249%, 49.975586%)" offset="0.570312"/><stop stop-opacity="1" stop-color="rgb(17.43927%, 30.97229%, 49.765015%)" offset="0.578125"/><stop stop-opacity="1" stop-color="rgb(17.356873%, 30.827332%, 49.554443%)" offset="0.585938"/><stop stop-opacity="1" stop-color="rgb(17.272949%, 30.680847%, 49.343872%)" offset="0.59375"/><stop stop-opacity="1" stop-color="rgb(17.189026%, 30.535889%, 49.133301%)" offset="0.601562"/><stop stop-opacity="1" stop-color="rgb(17.105103%, 30.39093%, 48.922729%)" offset="0.609375"/><stop stop-opacity="1" stop-color="rgb(17.021179%, 30.244446%, 48.712158%)" offset="0.617188"/><stop stop-opacity="1" stop-color="rgb(16.938782%, 30.099487%, 48.501587%)" offset="0.625"/><stop stop-opacity="1" stop-color="rgb(16.854858%, 29.954529%, 48.291016%)" offset="0.632812"/><stop stop-opacity="1" stop-color="rgb(16.770935%, 29.808044%, 48.080444%)" offset="0.640625"/><stop stop-opacity="1" stop-color="rgb(16.687012%, 29.663086%, 47.869873%)" offset="0.648438"/><stop stop-opacity="1" stop-color="rgb(16.604614%, 29.518127%, 47.660828%)" offset="0.65625"/><stop stop-opacity="1" stop-color="rgb(16.520691%, 29.371643%, 47.450256%)" offset="0.664062"/><stop stop-opacity="1" stop-color="rgb(16.436768%, 29.226685%, 47.239685%)" offset="0.671875"/><stop stop-opacity="1" stop-color="rgb(16.352844%, 29.081726%, 47.029114%)" offset="0.679688"/><stop stop-opacity="1" stop-color="rgb(16.270447%, 28.935242%, 46.818542%)" offset="0.6875"/><stop stop-opacity="1" stop-color="rgb(16.186523%, 28.790283%, 46.607971%)" offset="0.695312"/><stop stop-opacity="1" stop-color="rgb(16.1026%, 28.645325%, 46.3974%)" offset="0.703125"/><stop stop-opacity="1" stop-color="rgb(16.018677%, 28.49884%, 46.186829%)" offset="0.710938"/><stop stop-opacity="1" stop-color="rgb(15.934753%, 28.353882%, 45.976257%)" offset="0.71875"/><stop stop-opacity="1" stop-color="rgb(15.852356%, 28.208923%, 45.765686%)" offset="0.726562"/><stop stop-opacity="1" stop-color="rgb(15.768433%, 28.063965%, 45.555115%)" offset="0.734375"/><stop stop-opacity="1" stop-color="rgb(15.684509%, 27.91748%, 45.344543%)" offset="0.742188"/><stop stop-opacity="1" stop-color="rgb(15.600586%, 27.772522%, 45.133972%)" offset="0.75"/><stop stop-opacity="1" stop-color="rgb(15.518188%, 27.627563%, 44.923401%)" offset="0.757812"/><stop stop-opacity="1" stop-color="rgb(15.434265%, 27.481079%, 44.714355%)" offset="0.765625"/><stop stop-opacity="1" stop-color="rgb(15.350342%, 27.336121%, 44.503784%)" offset="0.773438"/><stop stop-opacity="1" stop-color="rgb(15.266418%, 27.191162%, 44.293213%)" offset="0.78125"/><stop stop-opacity="1" stop-color="rgb(15.184021%, 27.044678%, 44.082642%)" offset="0.789062"/><stop stop-opacity="1" stop-color="rgb(15.100098%, 26.899719%, 43.87207%)" offset="0.796875"/><stop stop-opacity="1" stop-color="rgb(15.016174%, 26.754761%, 43.661499%)" offset="0.804688"/><stop stop-opacity="1" stop-color="rgb(14.932251%, 26.608276%, 43.450928%)" offset="0.8125"/><stop stop-opacity="1" stop-color="rgb(14.848328%, 26.463318%, 43.240356%)" offset="0.820312"/><stop stop-opacity="1" stop-color="rgb(14.76593%, 26.318359%, 43.029785%)" offset="0.828125"/><stop stop-opacity="1" stop-color="rgb(14.682007%, 26.171875%, 42.819214%)" offset="0.835938"/><stop stop-opacity="1" stop-color="rgb(14.598083%, 26.026917%, 42.608643%)" offset="0.84375"/><stop stop-opacity="1" stop-color="rgb(14.51416%, 25.881958%, 42.398071%)" offset="0.851562"/><stop stop-opacity="1" stop-color="rgb(14.431763%, 25.737%, 42.1875%)" offset="0.859375"/><stop stop-opacity="1" stop-color="rgb(14.347839%, 25.590515%, 41.976929%)" offset="0.867188"/><stop stop-opacity="1" stop-color="rgb(14.263916%, 25.445557%, 41.767883%)" offset="0.875"/><stop stop-opacity="1" stop-color="rgb(14.179993%, 25.300598%, 41.557312%)" offset="0.882812"/><stop stop-opacity="1" stop-color="rgb(14.097595%, 25.154114%, 41.346741%)" offset="0.890625"/><stop stop-opacity="1" stop-color="rgb(14.013672%, 25.009155%, 41.136169%)" offset="0.898438"/><stop stop-opacity="1" stop-color="rgb(13.929749%, 24.864197%, 40.925598%)" offset="0.90625"/><stop stop-opacity="1" stop-color="rgb(13.845825%, 24.717712%, 40.715027%)" offset="0.914062"/><stop stop-opacity="1" stop-color="rgb(13.761902%, 24.572754%, 40.504456%)" offset="0.921875"/><stop stop-opacity="1" stop-color="rgb(13.679504%, 24.427795%, 40.293884%)" offset="0.929688"/><stop stop-opacity="1" stop-color="rgb(13.595581%, 24.281311%, 40.083313%)" offset="0.9375"/><stop stop-opacity="1" stop-color="rgb(13.511658%, 24.136353%, 39.872742%)" offset="0.945312"/><stop stop-opacity="1" stop-color="rgb(13.427734%, 23.991394%, 39.66217%)" offset="0.953125"/><stop stop-opacity="1" stop-color="rgb(13.345337%, 23.84491%, 39.451599%)" offset="0.960938"/><stop stop-opacity="1" stop-color="rgb(13.261414%, 23.699951%, 39.241028%)" offset="0.96875"/><stop stop-opacity="1" stop-color="rgb(13.17749%, 23.554993%, 39.030457%)" offset="0.976562"/><stop stop-opacity="1" stop-color="rgb(13.093567%, 23.408508%, 38.819885%)" offset="0.984375"/><stop stop-opacity="1" stop-color="rgb(12.995911%, 23.23761%, 38.572693%)" offset="1"/></linearGradient></defs><path fill="#0c1c30" d="M 19.5 10.5 L 70.5 10.5 C 71.289062 10.5 72.066406 10.578125 72.839844 10.730469 C 73.613281 10.882812 74.363281 11.113281 75.09375 11.414062 C 75.820312 11.714844 76.511719 12.085938 77.167969 12.523438 C 77.820312 12.960938 78.429688 13.457031 78.984375 14.015625 C 79.542969 14.570312 80.039062 15.179688 80.476562 15.832031 C 80.914062 16.488281 81.285156 17.179688 81.585938 17.90625 C 81.886719 18.636719 82.117188 19.386719 82.269531 20.160156 C 82.421875 20.933594 82.5 21.710938 82.5 22.5 L 82.5 73.5 C 82.5 74.289062 82.421875 75.066406 82.269531 75.839844 C 82.117188 76.613281 81.886719 77.363281 81.585938 78.09375 C 81.285156 78.820312 80.914062 79.511719 80.476562 80.167969 C 80.039062 80.820312 79.542969 81.429688 78.984375 81.984375 C 78.429688 82.542969 77.820312 83.039062 77.167969 83.476562 C 76.511719 83.914062 75.820312 84.285156 75.09375 84.585938 C 74.363281 84.886719 73.613281 85.117188 72.839844 85.269531 C 72.066406 85.421875 71.289062 85.5 70.5 85.5 L 19.5 85.5 C 18.710938 85.5 17.933594 85.421875 17.160156 85.269531 C 16.386719 85.117188 15.636719 84.886719 14.90625 84.585938 C 14.179688 84.285156 13.488281 83.914062 12.832031 83.476562 C 12.179688 83.039062 11.570312 82.542969 11.015625 81.984375 C 10.457031 81.429688 9.960938 80.820312 9.523438 80.167969 C 9.085938 79.511719 8.714844 78.820312 8.414062 78.09375 C 8.113281 77.363281 7.882812 76.613281 7.730469 75.839844 C 7.578125 75.066406 7.5 74.289062 7.5 73.5 L 7.5 22.5 C 7.5 21.710938 7.578125 20.933594 7.730469 20.160156 C 7.882812 19.386719 8.113281 18.636719 8.414062 17.90625 C 8.714844 17.179688 9.085938 16.488281 9.523438 15.832031 C 9.960938 15.179688 10.457031 14.570312 11.015625 14.015625 C 11.570312 13.457031 12.179688 12.960938 12.832031 12.523438 C 13.488281 12.085938 14.179688 11.714844 14.90625 11.414062 C 15.636719 11.113281 16.386719 10.882812 17.160156 10.730469 C 17.933594 10.578125 18.710938 10.5 19.5 10.5 Z M 19.5 10.5 " fill-opacity="0.45" fill-rule="nonzero"/><g clip-path="url(#d0f81aa3aa)"><g clip-path="url(#9e9a64c244)"><path fill="url(#b3078fed6e)" d="M 7.5 7.5 L 7.5 82.5 L 82.5 82.5 L 82.5 7.5 Z M 7.5 7.5 " fill-rule="nonzero"/></g></g><path stroke-linecap="butt" transform="matrix(0.75, 0, 0, 0.75, 0.0000005, 0.000002)" fill="none" stroke-linejoin="miter" d="M 26.000001 10.499998 L 94.000004 10.499998 C 95.015629 10.499998 96.026046 10.598956 97.026046 10.796873 C 98.020838 10.99479 98.989588 11.291665 99.932296 11.68229 C 100.869796 12.067706 101.76563 12.546873 102.60938 13.114581 C 103.458338 13.677081 104.239588 14.317706 104.958338 15.041665 C 105.682297 15.760415 106.322922 16.541665 106.885422 17.390623 C 107.45313 18.234373 107.932297 19.130207 108.317713 20.067707 C 108.708338 21.010415 109.005213 21.979165 109.20313 22.973957 C 109.401047 23.973957 109.500005 24.984374 109.500005 25.999999 L 109.500005 94.000002 C 109.500005 95.015627 109.401047 96.026044 109.20313 97.026044 C 109.005213 98.020836 108.708338 98.989586 108.317713 99.932294 C 107.932297 100.869794 107.45313 101.765628 106.885422 102.609378 C 106.322922 103.458336 105.682297 104.239586 104.958338 104.958336 C 104.239588 105.682295 103.458338 106.32292 102.60938 106.88542 C 101.76563 107.453128 100.869796 107.932295 99.932296 108.317711 C 98.989588 108.708336 98.020838 109.005211 97.026046 109.203128 C 96.026046 109.401045 95.015629 109.500003 94.000004 109.500003 L 26.000001 109.500003 C 24.984376 109.500003 23.973959 109.401045 22.973959 109.203128 C 21.979167 109.005211 21.010417 108.708336 20.067709 108.317711 C 19.130209 107.932295 18.234375 107.453128 17.390625 106.88542 C 16.541667 106.32292 15.760417 105.682295 15.041667 104.958336 C 14.317708 104.239586 13.677083 103.458336 13.114583 102.609378 C 12.546875 101.765628 12.067708 100.869794 11.682292 99.932294 C 11.291667 98.989586 10.994792 98.020836 10.796875 97.026044 C 10.598958 96.026044 10.5 95.015627 10.5 94.000002 L 10.5 25.999999 C 10.5 24.984374 10.598958 23.973957 10.796875 22.973957 C 10.994792 21.979165 11.291667 21.010415 11.682292 20.067707 C 12.067708 19.130207 12.546875 18.234373 13.114583 17.390623 C 13.677083 16.541665 14.317708 15.760415 15.041667 15.041665 C 15.760417 14.317706 16.541667 13.677081 17.390625 13.114581 C 18.234375 12.546873 19.130209 12.067706 20.067709 11.68229 C 21.010417 11.291665 21.979167 10.99479 22.973959 10.796873 C 23.973959 10.598956 24.984376 10.499998 26.000001 10.499998 Z M 26.000001 10.499998 " stroke="url(#0073104000)" stroke-width="1" stroke-miterlimit="4"/><path fill="#e8eff7" d="M 48 30 L 42 30 C 37.875 30 34.875 33 34.875 37.5 L 34.875 42 L 30.375 42 L 30.375 49.5 L 34.875 49.5 L 34.875 67.5 L 43.875 67.5 L 43.875 49.5 L 49.273438 49.5 L 50.625 42 L 43.5 42 L 43.5 39 C 43.5 37.351562 44.25 36.375 46.199219 36.375 L 48 36.375 Z M 48 30 " fill-opacity="1" fill-rule="nonzero"/></svg>