<svg xmlns="http://www.w3.org/2000/svg" xmlns:xlink="http://www.w3.org/1999/xlink" width="120" zoomAndPan="magnify" viewBox="0 0 90 89.999999" height="120" preserveAspectRatio="xMidYMid meet" version="1.0"><defs><clipPath id="c04d6b75a9"><path d="M 9 10 L 81 10 L 81 80 L 9 80 Z M 9 10 " clip-rule="nonzero"/></clipPath><clipPath id="7c620428ce"><path d="M 19.5 10.5 L 70.5 10.5 C 71.1875 10.5 71.871094 10.566406 72.546875 10.703125 C 73.226562 10.835938 73.882812 11.035156 74.519531 11.300781 C 75.15625 11.5625 75.761719 11.886719 76.332031 12.269531 C 76.90625 12.652344 77.4375 13.085938 77.925781 13.574219 C 78.414062 14.0625 78.847656 14.59375 79.230469 15.167969 C 79.613281 15.738281 79.9375 16.34375 80.199219 16.980469 C 80.464844 17.617188 80.664062 18.273438 80.796875 18.953125 C 80.933594 19.628906 81 20.3125 81 21 L 81 69 C 81 69.6875 80.933594 70.371094 80.796875 71.046875 C 80.664062 71.726562 80.464844 72.382812 80.199219 73.019531 C 79.9375 73.65625 79.613281 74.261719 79.230469 74.832031 C 78.847656 75.40625 78.414062 75.9375 77.925781 76.425781 C 77.4375 76.914062 76.90625 77.347656 76.332031 77.730469 C 75.761719 78.113281 75.15625 78.4375 74.519531 78.699219 C 73.882812 78.964844 73.226562 79.164062 72.546875 79.296875 C 71.871094 79.433594 71.1875 79.5 70.5 79.5 L 19.5 79.5 C 18.8125 79.5 18.128906 79.433594 17.453125 79.296875 C 16.773438 79.164062 16.117188 78.964844 15.480469 78.699219 C 14.84375 78.4375 14.238281 78.113281 13.667969 77.730469 C 13.09375 77.347656 12.5625 76.914062 12.074219 76.425781 C 11.585938 75.9375 11.152344 75.40625 10.769531 74.832031 C 10.386719 74.261719 10.0625 73.65625 9.800781 73.019531 C 9.535156 72.382812 9.335938 71.726562 9.203125 71.046875 C 9.066406 70.371094 9 69.6875 9 69 L 9 21 C 9 20.3125 9.066406 19.628906 9.203125 18.953125 C 9.335938 18.273438 9.535156 17.617188 9.800781 16.980469 C 10.0625 16.34375 10.386719 15.738281 10.769531 15.167969 C 11.152344 14.59375 11.585938 14.0625 12.074219 13.574219 C 12.5625 13.085938 13.09375 12.652344 13.667969 12.269531 C 14.238281 11.886719 14.84375 11.5625 15.480469 11.300781 C 16.117188 11.035156 16.773438 10.835938 17.453125 10.703125 C 18.128906 10.566406 18.8125 10.5 19.5 10.5 Z M 19.5 10.5 " clip-rule="nonzero"/></clipPath><linearGradient x1="0" gradientTransform="matrix(71.999999, 0, 0, 68.999999, 9, 10.500002)" y1="-0.00000000634058" x2="0" gradientUnits="userSpaceOnUse" y2="1" id="965ef43731"><stop stop-opacity="1" stop-color="rgb(43.919373%, 50.979614%, 59.999084%)" offset="0"/><stop stop-opacity="1" stop-color="rgb(43.768311%, 50.814819%, 59.819031%)" offset="0.0078125"/><stop stop-opacity="1" stop-color="rgb(43.467712%, 50.486755%, 59.460449%)" offset="0.015625"/><stop stop-opacity="1" stop-color="rgb(43.16864%, 50.158691%, 59.101868%)" offset="0.0234375"/><stop stop-opacity="1" stop-color="rgb(42.868042%, 49.830627%, 58.743286%)" offset="0.03125"/><stop stop-opacity="1" stop-color="rgb(42.567444%, 49.504089%, 58.38623%)" offset="0.0390625"/><stop stop-opacity="1" stop-color="rgb(42.266846%, 49.176025%, 58.027649%)" offset="0.046875"/><stop stop-opacity="1" stop-color="rgb(41.967773%, 48.847961%, 57.669067%)" offset="0.0546875"/><stop stop-opacity="1" stop-color="rgb(41.667175%, 48.519897%, 57.310486%)" offset="0.0625"/><stop stop-opacity="1" stop-color="rgb(41.366577%, 48.191833%, 56.951904%)" offset="0.0703125"/><stop stop-opacity="1" stop-color="rgb(41.065979%, 47.86377%, 56.593323%)" offset="0.078125"/><stop stop-opacity="1" stop-color="rgb(40.766907%, 47.537231%, 56.234741%)" offset="0.0859375"/><stop stop-opacity="1" stop-color="rgb(40.466309%, 47.209167%, 55.87616%)" offset="0.09375"/><stop stop-opacity="1" stop-color="rgb(40.16571%, 46.881104%, 55.517578%)" offset="0.101563"/><stop stop-opacity="1" stop-color="rgb(39.865112%, 46.55304%, 55.158997%)" offset="0.109375"/><stop stop-opacity="1" stop-color="rgb(39.564514%, 46.224976%, 54.801941%)" offset="0.117188"/><stop stop-opacity="1" stop-color="rgb(39.265442%, 45.896912%, 54.443359%)" offset="0.125"/><stop stop-opacity="1" stop-color="rgb(38.964844%, 45.570374%, 54.084778%)" offset="0.132813"/><stop stop-opacity="1" stop-color="rgb(38.664246%, 45.24231%, 53.726196%)" offset="0.140625"/><stop stop-opacity="1" stop-color="rgb(38.363647%, 44.914246%, 53.367615%)" offset="0.148438"/><stop stop-opacity="1" stop-color="rgb(38.064575%, 44.586182%, 53.009033%)" offset="0.15625"/><stop stop-opacity="1" stop-color="rgb(37.763977%, 44.258118%, 52.650452%)" offset="0.164063"/><stop stop-opacity="1" stop-color="rgb(37.463379%, 43.930054%, 52.29187%)" offset="0.171875"/><stop stop-opacity="1" stop-color="rgb(37.162781%, 43.603516%, 51.933289%)" offset="0.179688"/><stop stop-opacity="1" stop-color="rgb(36.863708%, 43.275452%, 51.574707%)" offset="0.1875"/><stop stop-opacity="1" stop-color="rgb(36.56311%, 42.947388%, 51.216125%)" offset="0.195313"/><stop stop-opacity="1" stop-color="rgb(36.262512%, 42.619324%, 50.85907%)" offset="0.203125"/><stop stop-opacity="1" stop-color="rgb(35.961914%, 42.29126%, 50.500488%)" offset="0.210938"/><stop stop-opacity="1" stop-color="rgb(35.662842%, 41.963196%, 50.141907%)" offset="0.21875"/><stop stop-opacity="1" stop-color="rgb(35.362244%, 41.636658%, 49.783325%)" offset="0.226563"/><stop stop-opacity="1" stop-color="rgb(35.061646%, 41.308594%, 49.424744%)" offset="0.234375"/><stop stop-opacity="1" stop-color="rgb(34.761047%, 40.98053%, 49.066162%)" offset="0.242188"/><stop stop-opacity="1" stop-color="rgb(34.461975%, 40.652466%, 48.707581%)" offset="0.25"/><stop stop-opacity="1" stop-color="rgb(34.161377%, 40.324402%, 48.348999%)" offset="0.257812"/><stop stop-opacity="1" stop-color="rgb(33.860779%, 39.996338%, 47.990417%)" offset="0.265625"/><stop stop-opacity="1" stop-color="rgb(33.560181%, 39.6698%, 47.631836%)" offset="0.273438"/><stop stop-opacity="1" stop-color="rgb(33.259583%, 39.341736%, 47.273254%)" offset="0.28125"/><stop stop-opacity="1" stop-color="rgb(32.96051%, 39.013672%, 46.916199%)" offset="0.289062"/><stop stop-opacity="1" stop-color="rgb(32.659912%, 38.685608%, 46.557617%)" offset="0.296875"/><stop stop-opacity="1" stop-color="rgb(32.359314%, 38.357544%, 46.199036%)" offset="0.304688"/><stop stop-opacity="1" stop-color="rgb(32.058716%, 38.02948%, 45.840454%)" offset="0.3125"/><stop stop-opacity="1" stop-color="rgb(31.759644%, 37.702942%, 45.481873%)" offset="0.320312"/><stop stop-opacity="1" stop-color="rgb(31.459045%, 37.374878%, 45.123291%)" offset="0.328125"/><stop stop-opacity="1" stop-color="rgb(31.158447%, 37.046814%, 44.764709%)" offset="0.335938"/><stop stop-opacity="1" stop-color="rgb(30.857849%, 36.71875%, 44.406128%)" offset="0.34375"/><stop stop-opacity="1" stop-color="rgb(30.558777%, 36.390686%, 44.047546%)" offset="0.351562"/><stop stop-opacity="1" stop-color="rgb(30.258179%, 36.062622%, 43.688965%)" offset="0.359375"/><stop stop-opacity="1" stop-color="rgb(29.957581%, 35.734558%, 43.331909%)" offset="0.367188"/><stop stop-opacity="1" stop-color="rgb(29.656982%, 35.40802%, 42.973328%)" offset="0.375"/><stop stop-opacity="1" stop-color="rgb(29.35791%, 35.079956%, 42.614746%)" offset="0.382812"/><stop stop-opacity="1" stop-color="rgb(29.057312%, 34.751892%, 42.256165%)" offset="0.390625"/><stop stop-opacity="1" stop-color="rgb(28.756714%, 34.423828%, 41.897583%)" offset="0.398438"/><stop stop-opacity="1" stop-color="rgb(28.456116%, 34.095764%, 41.539001%)" offset="0.40625"/><stop stop-opacity="1" stop-color="rgb(28.157043%, 33.7677%, 41.18042%)" offset="0.414062"/><stop stop-opacity="1" stop-color="rgb(27.856445%, 33.441162%, 40.821838%)" offset="0.421875"/><stop stop-opacity="1" stop-color="rgb(27.555847%, 33.113098%, 40.463257%)" offset="0.429688"/><stop stop-opacity="1" stop-color="rgb(27.255249%, 32.785034%, 40.104675%)" offset="0.4375"/><stop stop-opacity="1" stop-color="rgb(26.956177%, 32.45697%, 39.746094%)" offset="0.445312"/><stop stop-opacity="1" stop-color="rgb(26.655579%, 32.128906%, 39.389038%)" offset="0.453125"/><stop stop-opacity="1" stop-color="rgb(26.35498%, 31.800842%, 39.030457%)" offset="0.460938"/><stop stop-opacity="1" stop-color="rgb(26.054382%, 31.474304%, 38.671875%)" offset="0.46875"/><stop stop-opacity="1" stop-color="rgb(25.753784%, 31.14624%, 38.313293%)" offset="0.476562"/><stop stop-opacity="1" stop-color="rgb(25.454712%, 30.818176%, 37.954712%)" offset="0.484375"/><stop stop-opacity="1" stop-color="rgb(25.154114%, 30.490112%, 37.59613%)" offset="0.492188"/><stop stop-opacity="1" stop-color="rgb(24.853516%, 30.162048%, 37.237549%)" offset="0.5"/><stop stop-opacity="1" stop-color="rgb(24.552917%, 29.833984%, 36.878967%)" offset="0.507812"/><stop stop-opacity="1" stop-color="rgb(24.253845%, 29.507446%, 36.520386%)" offset="0.515625"/><stop stop-opacity="1" stop-color="rgb(23.953247%, 29.179382%, 36.161804%)" offset="0.523438"/><stop stop-opacity="1" stop-color="rgb(23.652649%, 28.851318%, 35.804749%)" offset="0.53125"/><stop stop-opacity="1" stop-color="rgb(23.352051%, 28.523254%, 35.446167%)" offset="0.539062"/><stop stop-opacity="1" stop-color="rgb(23.052979%, 28.19519%, 35.087585%)" offset="0.546875"/><stop stop-opacity="1" stop-color="rgb(22.75238%, 27.867126%, 34.729004%)" offset="0.554688"/><stop stop-opacity="1" stop-color="rgb(22.451782%, 27.540588%, 34.370422%)" offset="0.5625"/><stop stop-opacity="1" stop-color="rgb(22.151184%, 27.212524%, 34.011841%)" offset="0.570312"/><stop stop-opacity="1" stop-color="rgb(21.852112%, 26.88446%, 33.653259%)" offset="0.578125"/><stop stop-opacity="1" stop-color="rgb(21.551514%, 26.556396%, 33.294678%)" offset="0.585938"/><stop stop-opacity="1" stop-color="rgb(21.250916%, 26.228333%, 32.936096%)" offset="0.59375"/><stop stop-opacity="1" stop-color="rgb(20.950317%, 25.900269%, 32.577515%)" offset="0.601562"/><stop stop-opacity="1" stop-color="rgb(20.651245%, 25.57373%, 32.218933%)" offset="0.609375"/><stop stop-opacity="1" stop-color="rgb(20.350647%, 25.245667%, 31.861877%)" offset="0.617188"/><stop stop-opacity="1" stop-color="rgb(20.050049%, 24.917603%, 31.503296%)" offset="0.625"/><stop stop-opacity="1" stop-color="rgb(19.749451%, 24.589539%, 31.144714%)" offset="0.632812"/><stop stop-opacity="1" stop-color="rgb(19.448853%, 24.261475%, 30.786133%)" offset="0.640625"/><stop stop-opacity="1" stop-color="rgb(19.14978%, 23.933411%, 30.427551%)" offset="0.648438"/><stop stop-opacity="1" stop-color="rgb(18.849182%, 23.606873%, 30.06897%)" offset="0.65625"/><stop stop-opacity="1" stop-color="rgb(18.548584%, 23.278809%, 29.710388%)" offset="0.664062"/><stop stop-opacity="1" stop-color="rgb(18.247986%, 22.950745%, 29.351807%)" offset="0.671875"/><stop stop-opacity="1" stop-color="rgb(17.948914%, 22.622681%, 28.993225%)" offset="0.679688"/><stop stop-opacity="1" stop-color="rgb(17.648315%, 22.294617%, 28.634644%)" offset="0.6875"/><stop stop-opacity="1" stop-color="rgb(17.347717%, 21.966553%, 28.277588%)" offset="0.695312"/><stop stop-opacity="1" stop-color="rgb(17.047119%, 21.640015%, 27.919006%)" offset="0.703125"/><stop stop-opacity="1" stop-color="rgb(16.748047%, 21.311951%, 27.560425%)" offset="0.710938"/><stop stop-opacity="1" stop-color="rgb(16.447449%, 20.983887%, 27.201843%)" offset="0.71875"/><stop stop-opacity="1" stop-color="rgb(16.146851%, 20.655823%, 26.843262%)" offset="0.726562"/><stop stop-opacity="1" stop-color="rgb(15.846252%, 20.327759%, 26.48468%)" offset="0.734375"/><stop stop-opacity="1" stop-color="rgb(15.54718%, 19.999695%, 26.126099%)" offset="0.742188"/><stop stop-opacity="1" stop-color="rgb(15.246582%, 19.673157%, 25.767517%)" offset="0.75"/><stop stop-opacity="1" stop-color="rgb(14.945984%, 19.345093%, 25.408936%)" offset="0.757812"/><stop stop-opacity="1" stop-color="rgb(14.645386%, 19.017029%, 25.050354%)" offset="0.765625"/><stop stop-opacity="1" stop-color="rgb(14.346313%, 18.688965%, 24.691772%)" offset="0.773438"/><stop stop-opacity="1" stop-color="rgb(14.045715%, 18.360901%, 24.334717%)" offset="0.78125"/><stop stop-opacity="1" stop-color="rgb(13.745117%, 18.032837%, 23.976135%)" offset="0.789062"/><stop stop-opacity="1" stop-color="rgb(13.444519%, 17.706299%, 23.617554%)" offset="0.796875"/><stop stop-opacity="1" stop-color="rgb(13.143921%, 17.378235%, 23.258972%)" offset="0.804688"/><stop stop-opacity="1" stop-color="rgb(12.844849%, 17.050171%, 22.900391%)" offset="0.8125"/><stop stop-opacity="1" stop-color="rgb(12.54425%, 16.722107%, 22.541809%)" offset="0.820312"/><stop stop-opacity="1" stop-color="rgb(12.243652%, 16.394043%, 22.183228%)" offset="0.828125"/><stop stop-opacity="1" stop-color="rgb(11.943054%, 16.065979%, 21.824646%)" offset="0.835938"/><stop stop-opacity="1" stop-color="rgb(11.643982%, 15.739441%, 21.466064%)" offset="0.84375"/><stop stop-opacity="1" stop-color="rgb(11.343384%, 15.411377%, 21.107483%)" offset="0.851562"/><stop stop-opacity="1" stop-color="rgb(11.042786%, 15.083313%, 20.748901%)" offset="0.859375"/><stop stop-opacity="1" stop-color="rgb(10.742188%, 14.755249%, 20.391846%)" offset="0.867188"/><stop stop-opacity="1" stop-color="rgb(10.443115%, 14.427185%, 20.033264%)" offset="0.875"/><stop stop-opacity="1" stop-color="rgb(10.142517%, 14.099121%, 19.674683%)" offset="0.882812"/><stop stop-opacity="1" stop-color="rgb(9.841919%, 13.772583%, 19.316101%)" offset="0.890625"/><stop stop-opacity="1" stop-color="rgb(9.541321%, 13.444519%, 18.95752%)" offset="0.898438"/><stop stop-opacity="1" stop-color="rgb(9.242249%, 13.116455%, 18.598938%)" offset="0.90625"/><stop stop-opacity="1" stop-color="rgb(8.94165%, 12.788391%, 18.240356%)" offset="0.914062"/><stop stop-opacity="1" stop-color="rgb(8.641052%, 12.460327%, 17.881775%)" offset="0.921875"/><stop stop-opacity="1" stop-color="rgb(8.340454%, 12.132263%, 17.523193%)" offset="0.929688"/><stop stop-opacity="1" stop-color="rgb(8.041382%, 11.805725%, 17.164612%)" offset="0.9375"/><stop stop-opacity="1" stop-color="rgb(7.740784%, 11.477661%, 16.807556%)" offset="0.945312"/><stop stop-opacity="1" stop-color="rgb(7.440186%, 11.149597%, 16.448975%)" offset="0.953125"/><stop stop-opacity="1" stop-color="rgb(7.139587%, 10.821533%, 16.090393%)" offset="0.960938"/><stop stop-opacity="1" stop-color="rgb(6.838989%, 10.493469%, 15.731812%)" offset="0.96875"/><stop stop-opacity="1" stop-color="rgb(6.539917%, 10.165405%, 15.37323%)" offset="0.976562"/><stop stop-opacity="1" stop-color="rgb(6.239319%, 9.838867%, 15.014648%)" offset="0.984375"/><stop stop-opacity="1" stop-color="rgb(5.938721%, 9.510803%, 14.656067%)" offset="0.992188"/><stop stop-opacity="1" stop-color="rgb(5.638123%, 9.182739%, 14.297485%)" offset="1"/></linearGradient><clipPath id="5db783475c"><path d="M 17.914062 16.542969 L 72.085938 16.542969 L 72.085938 73.46875 L 17.914062 73.46875 Z M 17.914062 16.542969 " clip-rule="nonzero"/></clipPath><clipPath id="65deb086df"><path d="M 22.414062 16.542969 L 67.585938 16.542969 C 70.074219 16.542969 72.085938 18.554688 72.085938 21.042969 L 72.085938 68.957031 C 72.085938 71.445312 70.074219 73.457031 67.585938 73.457031 L 22.414062 73.457031 C 19.925781 73.457031 17.914062 71.445312 17.914062 68.957031 L 17.914062 21.042969 C 17.914062 18.554688 19.925781 16.542969 22.414062 16.542969 Z M 22.414062 16.542969 " clip-rule="nonzero"/></clipPath><clipPath id="f6e3664c4a"><path d="M 0.914062 0.542969 L 55.085938 0.542969 L 55.085938 57.46875 L 0.914062 57.46875 Z M 0.914062 0.542969 " clip-rule="nonzero"/></clipPath><clipPath id="99331b8bb0"><path d="M 5.414062 0.542969 L 50.585938 0.542969 C 53.074219 0.542969 55.085938 2.554688 55.085938 5.042969 L 55.085938 52.957031 C 55.085938 55.445312 53.074219 57.457031 50.585938 57.457031 L 5.414062 57.457031 C 2.925781 57.457031 0.914062 55.445312 0.914062 52.957031 L 0.914062 5.042969 C 0.914062 2.554688 2.925781 0.542969 5.414062 0.542969 Z M 5.414062 0.542969 " clip-rule="nonzero"/></clipPath><clipPath id="0d3e969e2f"><rect x="0" width="56" y="0" height="58"/></clipPath><clipPath id="b9428a9e8b"><path d="M 31 37 L 59.324219 37 L 59.324219 63 L 31 63 Z M 31 37 " clip-rule="nonzero"/></clipPath></defs><path fill="#0e1724" d="M 19.5 7.5 L 70.5 7.5 C 71.289062 7.5 72.066406 7.578125 72.839844 7.730469 C 73.613281 7.882812 74.363281 8.113281 75.09375 8.414062 C 75.820312 8.714844 76.511719 9.085938 77.167969 9.523438 C 77.820312 9.960938 78.429688 10.457031 78.984375 11.015625 C 79.542969 11.570312 80.039062 12.179688 80.476562 12.832031 C 80.914062 13.488281 81.285156 14.179688 81.585938 14.90625 C 81.886719 15.636719 82.117188 16.386719 82.269531 17.160156 C 82.421875 17.933594 82.5 18.710938 82.5 19.5 L 82.5 70.5 C 82.5 71.289062 82.421875 72.066406 82.269531 72.839844 C 82.117188 73.613281 81.886719 74.363281 81.585938 75.09375 C 81.285156 75.820312 80.914062 76.511719 80.476562 77.167969 C 80.039062 77.820312 79.542969 78.429688 78.984375 78.984375 C 78.429688 79.542969 77.820312 80.039062 77.167969 80.476562 C 76.511719 80.914062 75.820312 81.285156 75.09375 81.585938 C 74.363281 81.886719 73.613281 82.117188 72.839844 82.269531 C 72.066406 82.421875 71.289062 82.5 70.5 82.5 L 19.5 82.5 C 18.710938 82.5 17.933594 82.421875 17.160156 82.269531 C 16.386719 82.117188 15.636719 81.886719 14.90625 81.585938 C 14.179688 81.285156 13.488281 80.914062 12.832031 80.476562 C 12.179688 80.039062 11.570312 79.542969 11.015625 78.984375 C 10.457031 78.429688 9.960938 77.820312 9.523438 77.167969 C 9.085938 76.511719 8.714844 75.820312 8.414062 75.09375 C 8.113281 74.363281 7.882812 73.613281 7.730469 72.839844 C 7.578125 72.066406 7.5 71.289062 7.5 70.5 L 7.5 19.5 C 7.5 18.710938 7.578125 17.933594 7.730469 17.160156 C 7.882812 16.386719 8.113281 15.636719 8.414062 14.90625 C 8.714844 14.179688 9.085938 13.488281 9.523438 12.832031 C 9.960938 12.179688 10.457031 11.570312 11.015625 11.015625 C 11.570312 10.457031 12.179688 9.960938 12.832031 9.523438 C 13.488281 9.085938 14.179688 8.714844 14.90625 8.414062 C 15.636719 8.113281 16.386719 7.882812 17.160156 7.730469 C 17.933594 7.578125 18.710938 7.5 19.5 7.5 Z M 19.5 7.5 " fill-opacity="1" fill-rule="nonzero"/><g clip-path="url(#c04d6b75a9)"><g clip-path="url(#7c620428ce)"><path fill="url(#965ef43731)" d="M 9 10.5 L 9 79.5 L 81 79.5 L 81 10.5 Z M 9 10.5 " fill-rule="nonzero"/></g></g><path fill="#ffffff" d="M 37.5 22.125 L 40.5 22.125 L 40.5 22.875 L 37.5 22.875 Z M 43.5 22.125 L 46.5 22.125 L 46.5 22.875 L 43.5 22.875 Z M 49.5 22.125 L 52.5 22.125 L 52.5 22.875 L 49.5 22.875 Z M 55.5 22.125 L 58.5 22.125 L 58.5 22.875 L 55.5 22.875 Z M 61.566406 22.640625 C 62.570312 22.988281 63.484375 23.492188 64.316406 24.148438 L 63.851562 24.738281 C 63.085938 24.132812 62.242188 23.667969 61.320312 23.351562 Z M 66.433594 26.503906 C 67.003906 27.40625 67.40625 28.378906 67.640625 29.421875 L 66.910156 29.589844 C 66.691406 28.628906 66.320312 27.734375 65.796875 26.902344 Z M 67.875 32.453125 L 67.875 35.453125 L 67.125 35.453125 L 67.125 32.453125 Z M 67.875 38.453125 L 67.875 41.453125 L 67.125 41.453125 L 67.125 38.453125 Z M 67.875 44.453125 L 67.875 47.453125 L 67.125 47.453125 L 67.125 44.453125 Z M 67.875 50.453125 L 67.875 53.453125 L 67.125 53.453125 L 67.125 50.453125 Z M 67.875 56.453125 L 67.875 58.5 C 67.875 58.820312 67.859375 59.136719 67.828125 59.453125 L 67.082031 59.378906 C 67.109375 59.085938 67.125 58.792969 67.125 58.5 L 67.125 56.453125 Z M 66.980469 62.5 C 66.527344 63.460938 65.925781 64.320312 65.179688 65.078125 L 64.644531 64.550781 C 65.332031 63.855469 65.882812 63.0625 66.300781 62.179688 Z M 62.628906 66.917969 C 61.667969 67.386719 60.65625 67.6875 59.59375 67.8125 L 59.507812 67.066406 C 60.484375 66.949219 61.414062 66.675781 62.296875 66.246094 Z M 56.59375 67.875 L 53.59375 67.875 L 53.59375 67.125 L 56.59375 67.125 Z M 50.59375 67.875 L 47.59375 67.875 L 47.59375 67.125 L 50.59375 67.125 Z M 44.59375 67.875 L 41.59375 67.875 L 41.59375 67.125 L 44.59375 67.125 Z M 38.59375 67.875 L 35.59375 67.875 L 35.59375 67.125 L 38.59375 67.125 Z M 32.59375 67.875 L 31.5 67.875 C 30.847656 67.875 30.203125 67.808594 29.566406 67.671875 L 29.71875 66.9375 C 30.308594 67.0625 30.898438 67.125 31.5 67.125 L 32.59375 67.125 Z M 26.628906 66.507812 C 25.714844 65.953125 24.917969 65.261719 24.242188 64.433594 L 24.820312 63.957031 C 25.445312 64.71875 26.175781 65.355469 27.015625 65.867188 Z M 22.691406 61.710938 C 22.328125 60.71875 22.140625 59.691406 22.125 58.636719 L 22.875 58.625 C 22.890625 59.597656 23.0625 60.539062 23.394531 61.453125 Z M 22.125 55.636719 L 22.125 52.636719 L 22.875 52.636719 L 22.875 55.636719 Z M 22.125 49.636719 L 22.125 46.636719 L 22.875 46.636719 L 22.875 49.636719 Z M 22.125 43.636719 L 22.125 40.636719 L 22.875 40.636719 L 22.875 43.636719 Z M 22.125 37.636719 L 22.125 34.636719 L 22.875 34.636719 L 22.875 37.636719 Z M 22.125 31.636719 L 22.125 31.5 C 22.125 30.5 22.28125 29.527344 22.59375 28.574219 L 23.304688 28.808594 C 23.019531 29.683594 22.875 30.582031 22.875 31.5 L 22.875 31.636719 Z M 24.058594 25.796875 C 24.710938 24.949219 25.484375 24.230469 26.382812 23.644531 L 26.792969 24.273438 C 25.964844 24.8125 25.253906 25.472656 24.652344 26.253906 Z M 29.277344 22.390625 C 30.007812 22.214844 30.75 22.125 31.5 22.125 L 34.5 22.125 L 34.5 22.875 L 31.5 22.875 C 30.808594 22.875 30.128906 22.957031 29.457031 23.121094 Z M 29.277344 22.390625 " fill-opacity="0.15" fill-rule="nonzero"/><g clip-path="url(#5db783475c)"><g clip-path="url(#65deb086df)"><g transform="matrix(1, 0, 0, 1, 17, 16)"><g clip-path="url(#0d3e969e2f)"><g clip-path="url(#f6e3664c4a)"><g clip-path="url(#99331b8bb0)"><path fill="#111b28" d="M 0.914062 0.542969 L 55.085938 0.542969 L 55.085938 57.46875 L 0.914062 57.46875 Z M 0.914062 0.542969 " fill-opacity="1" fill-rule="nonzero"/></g></g></g></g></g></g><g clip-path="url(#b9428a9e8b)"><path fill="#ffffff" d="M 37.402344 37.886719 C 34.769531 38.761719 32.703125 40.929688 31.878906 43.691406 C 31.234375 45.859375 30.824219 49.460938 32.585938 54.289062 C 32.601562 54.339844 34.335938 59.109375 38.585938 61.6875 C 40.675781 62.960938 43.292969 62.902344 45.25 61.550781 L 45.324219 61.5 C 45.402344 61.4375 45.480469 61.386719 45.546875 61.335938 C 45.65625 61.242188 45.785156 61.199219 45.914062 61.199219 C 46.039062 61.199219 46.160156 61.242188 46.269531 61.320312 C 46.371094 61.40625 46.472656 61.480469 46.558594 61.53125 L 46.574219 61.542969 C 48.53125 62.902344 51.148438 62.953125 53.238281 61.675781 C 57.046875 59.363281 58.824219 55.328125 59.171875 54.453125 C 59.097656 54.453125 59.019531 54.453125 58.941406 54.453125 L 58.925781 54.453125 C 56.902344 54.453125 54.992188 53.660156 53.5625 52.234375 C 52.125 50.796875 51.328125 48.894531 51.328125 46.863281 C 51.320312 43.28125 53.824219 40.222656 57.21875 39.441406 C 56.402344 38.742188 55.457031 38.207031 54.4375 37.867188 C 49.925781 36.371094 46.695312 39.535156 46.347656 39.898438 L 46.328125 39.917969 C 46.109375 40.136719 45.742188 40.136719 45.523438 39.917969 L 45.503906 39.898438 C 45.140625 39.550781 41.917969 36.390625 37.402344 37.886719 Z M 37.402344 37.886719 " fill-opacity="1" fill-rule="evenodd"/></g><path fill="#ffffff" d="M 47.699219 28.859375 C 46.480469 30.074219 45.894531 31.875 46.007812 33.96875 C 48.105469 34.078125 49.90625 33.484375 51.125 32.257812 C 52.339844 31.042969 52.933594 29.242188 52.816406 27.148438 C 50.714844 27.039062 48.914062 27.632812 47.699219 28.859375 Z M 47.699219 28.859375 " fill-opacity="1" fill-rule="evenodd"/></svg>