<svg xmlns="http://www.w3.org/2000/svg" xmlns:xlink="http://www.w3.org/1999/xlink" width="120" zoomAndPan="magnify" viewBox="0 0 90 89.999999" height="120" preserveAspectRatio="xMidYMid meet" version="1.0"><path stroke-linecap="butt" transform="matrix(0.75, 0, 0, 0.75, 0.0000005, 0.000002)" fill-opacity="1" fill="#c0392b" fill-rule="nonzero" stroke-linejoin="miter" d="M 118.000006 60.000001 C 118.000006 61.901042 117.906256 63.796876 117.718756 65.687501 C 117.536464 67.572918 117.255214 69.453126 116.885422 71.317709 C 116.51563 73.177085 116.052089 75.020835 115.500005 76.838543 C 114.95313 78.656251 114.312505 80.44271 113.583339 82.197918 C 112.85938 83.953127 112.04688 85.666669 111.151047 87.338544 C 110.255213 89.015627 109.281255 90.645835 108.223963 92.223961 C 107.17188 93.802086 106.041672 95.328127 104.833338 96.796877 C 103.630213 98.265628 102.354171 99.666669 101.010421 101.010419 C 99.666671 102.354169 98.26563 103.630211 96.796879 104.833336 C 95.328129 106.04167 93.802088 107.171878 92.223963 108.223961 C 90.645837 109.281253 89.015629 110.255211 87.338546 111.151045 C 85.666671 112.046878 83.953129 112.859378 82.19792 113.583337 C 80.442712 114.312503 78.656253 114.953128 76.838545 115.500003 C 75.020837 116.052087 73.177087 116.515628 71.317711 116.88542 C 69.453128 117.255212 67.57292 117.536462 65.687503 117.718754 C 63.796878 117.906254 61.901044 118.000004 60.000003 118.000004 C 58.098961 118.000004 56.203127 117.906254 54.312502 117.718754 C 52.427085 117.536462 50.546877 117.255212 48.682294 116.88542 C 46.822918 116.515628 44.979168 116.052087 43.16146 115.500003 C 41.343752 114.953128 39.557293 114.312503 37.802085 113.583337 C 36.046876 112.859378 34.333334 112.046878 32.661459 111.151045 C 30.984376 110.255211 29.354168 109.281253 27.776042 108.223961 C 26.197917 107.171878 24.671876 106.04167 23.203126 104.833336 C 21.734375 103.630211 20.333334 102.354169 18.989584 101.010419 C 17.645834 99.666669 16.369792 98.265628 15.166667 96.796877 C 13.958333 95.328127 12.828125 93.802086 11.776042 92.223961 C 10.71875 90.645835 9.744792 89.015627 8.848958 87.338544 C 7.953125 85.666669 7.140625 83.953127 6.416666 82.197918 C 5.6875 80.44271 5.046875 78.656251 4.5 76.838543 C 3.947916 75.020835 3.484375 73.177085 3.114583 71.317709 C 2.744791 69.453126 2.463541 67.572918 2.281249 65.687501 C 2.093749 63.796876 1.999999 61.901042 1.999999 60.000001 C 1.999999 58.098959 2.093749 56.203125 2.281249 54.3125 C 2.463541 52.427083 2.744791 50.546875 3.114583 48.682292 C 3.484375 46.822916 3.947916 44.979166 4.5 43.161458 C 5.046875 41.34375 5.6875 39.557291 6.416666 37.802083 C 7.140625 36.046874 7.953125 34.333332 8.848958 32.661457 C 9.744792 30.984374 10.71875 29.354166 11.776042 27.77604 C 12.828125 26.197915 13.958333 24.671874 15.166667 23.203124 C 16.369792 21.734373 17.645834 20.333332 18.989584 18.989582 C 20.333334 17.645832 21.734375 16.36979 23.203126 15.166665 C 24.671876 13.958331 26.197917 12.828123 27.776042 11.77604 C 29.354168 10.718748 30.984376 9.74479 32.661459 8.848956 C 34.333334 7.953123 36.046876 7.140623 37.802085 6.416664 C 39.557293 5.687498 41.343752 5.046873 43.16146 4.499998 C 44.979168 3.947914 46.822918 3.484373 48.682294 3.114581 C 50.546877 2.744789 52.427085 2.463539 54.312502 2.281247 C 56.203127 2.093747 58.098961 1.999997 60.000003 1.999997 C 61.901044 1.999997 63.796878 2.093747 65.687503 2.281247 C 67.57292 2.463539 69.453128 2.744789 71.317711 3.114581 C 73.177087 3.484373 75.020837 3.947914 76.838545 4.499998 C 78.656253 5.046873 80.442712 5.687498 82.19792 6.416664 C 83.953129 7.140623 85.666671 7.953123 87.338546 8.848956 C 89.015629 9.74479 90.645837 10.718748 92.223963 11.77604 C 93.802088 12.828123 95.328129 13.958331 96.796879 15.166665 C 98.26563 16.36979 99.666671 17.645832 101.010421 18.989582 C 102.354171 20.333332 103.630213 21.734373 104.833338 23.203124 C 106.041672 24.671874 107.17188 26.197915 108.223963 27.77604 C 109.281255 29.354166 110.255213 30.984374 111.151047 32.661457 C 112.04688 34.333332 112.85938 36.046874 113.583339 37.802083 C 114.312505 39.557291 114.95313 41.34375 115.500005 43.161458 C 116.052089 44.979166 116.51563 46.822916 116.885422 48.682292 C 117.255214 50.546875 117.536464 52.427083 117.718756 54.3125 C 117.906256 56.203125 118.000006 58.098959 118.000006 60.000001 Z M 118.000006 60.000001 " stroke="#f7c74a" stroke-width="4" stroke-opacity="1" stroke-miterlimit="4"/><path stroke-linecap="round" transform="matrix(0.75, 0, 0, 0.75, 0.0000005, 0.000002)" fill-opacity="1" fill="#000000" fill-rule="nonzero" stroke-linejoin="miter" d="M 38.000001 37.999999 L 82.000004 82.000002 " stroke="#ffffff" stroke-width="10" stroke-opacity="1" stroke-miterlimit="4"/><path stroke-linecap="round" transform="matrix(0.75, 0, 0, 0.75, 0.0000005, 0.000002)" fill-opacity="1" fill="#000000" fill-rule="nonzero" stroke-linejoin="miter" d="M 82.000004 37.999999 L 38.000001 82.000002 " stroke="#ffffff" stroke-width="10" stroke-opacity="1" stroke-miterlimit="4"/></svg>