<svg xmlns="http://www.w3.org/2000/svg" xmlns:xlink="http://www.w3.org/1999/xlink" width="380" zoomAndPan="magnify" viewBox="0 0 285 67.499998" height="90" preserveAspectRatio="xMidYMid meet" version="1.0"><defs><clipPath id="11497241b6"><path d="M 5 3 L 280 3 L 280 63 L 5 63 Z M 5 3 " clip-rule="nonzero"/></clipPath><clipPath id="e260099957"><path d="M 18.992188 3.679688 L 266.007812 3.679688 C 266.882812 3.679688 267.75 3.765625 268.605469 3.9375 C 269.464844 4.105469 270.296875 4.355469 271.101562 4.691406 C 271.910156 5.023438 272.679688 5.429688 273.40625 5.914062 C 274.132812 6.398438 274.804688 6.945312 275.421875 7.5625 C 276.039062 8.175781 276.59375 8.847656 277.078125 9.570312 C 277.5625 10.292969 277.972656 11.058594 278.308594 11.863281 C 278.640625 12.664062 278.894531 13.496094 279.066406 14.347656 C 279.234375 15.199219 279.320312 16.0625 279.320312 16.933594 L 279.320312 49.328125 C 279.320312 50.195312 279.234375 51.058594 279.066406 51.910156 C 278.894531 52.765625 278.640625 53.59375 278.308594 54.398438 C 277.972656 55.203125 277.5625 55.964844 277.078125 56.6875 C 276.59375 57.410156 276.039062 58.082031 275.421875 58.695312 C 274.804688 59.3125 274.132812 59.863281 273.40625 60.34375 C 272.679688 60.828125 271.910156 61.238281 271.101562 61.570312 C 270.296875 61.902344 269.464844 62.152344 268.605469 62.324219 C 267.75 62.492188 266.882812 62.578125 266.007812 62.578125 L 18.992188 62.578125 C 18.117188 62.578125 17.25 62.492188 16.394531 62.324219 C 15.535156 62.152344 14.703125 61.902344 13.898438 61.570312 C 13.089844 61.238281 12.320312 60.828125 11.59375 60.34375 C 10.867188 59.863281 10.195312 59.3125 9.578125 58.695312 C 8.960938 58.082031 8.40625 57.410156 7.921875 56.6875 C 7.4375 55.964844 7.027344 55.203125 6.691406 54.398438 C 6.359375 53.59375 6.105469 52.765625 5.933594 51.910156 C 5.765625 51.058594 5.679688 50.195312 5.679688 49.328125 L 5.679688 16.933594 C 5.679688 16.0625 5.765625 15.199219 5.933594 14.347656 C 6.105469 13.496094 6.359375 12.664062 6.691406 11.863281 C 7.027344 11.058594 7.4375 10.292969 7.921875 9.570312 C 8.40625 8.847656 8.960938 8.175781 9.578125 7.5625 C 10.195312 6.945312 10.867188 6.398438 11.59375 5.914062 C 12.320312 5.429688 13.089844 5.023438 13.898438 4.691406 C 14.703125 4.355469 15.535156 4.105469 16.394531 3.9375 C 17.25 3.765625 18.117188 3.679688 18.992188 3.679688 Z M 18.992188 3.679688 " clip-rule="nonzero"/></clipPath><linearGradient x1="0" gradientTransform="matrix(273.642292, 0, 0, 58.89706, 5.678859, 3.681069)" y1="-0.0000000450761" x2="0" gradientUnits="userSpaceOnUse" y2="1" id="31b19cda92"><stop stop-opacity="1" stop-color="rgb(83.529663%, 27.059937%, 22.749329%)" offset="0"/><stop stop-opacity="1" stop-color="rgb(83.421326%, 26.98822%, 22.688293%)" offset="0.0078125"/><stop stop-opacity="1" stop-color="rgb(83.207703%, 26.847839%, 22.564697%)" offset="0.015625"/><stop stop-opacity="1" stop-color="rgb(82.992554%, 26.705933%, 22.442627%)" offset="0.0234375"/><stop stop-opacity="1" stop-color="rgb(82.778931%, 26.565552%, 22.320557%)" offset="0.03125"/><stop stop-opacity="1" stop-color="rgb(82.563782%, 26.425171%, 22.19696%)" offset="0.0390625"/><stop stop-opacity="1" stop-color="rgb(82.348633%, 26.283264%, 22.07489%)" offset="0.046875"/><stop stop-opacity="1" stop-color="rgb(82.13501%, 26.142883%, 21.95282%)" offset="0.0546875"/><stop stop-opacity="1" stop-color="rgb(81.919861%, 26.002502%, 21.829224%)" offset="0.0625"/><stop stop-opacity="1" stop-color="rgb(81.706238%, 25.860596%, 21.707153%)" offset="0.0703125"/><stop stop-opacity="1" stop-color="rgb(81.491089%, 25.720215%, 21.585083%)" offset="0.078125"/><stop stop-opacity="1" stop-color="rgb(81.277466%, 25.579834%, 21.461487%)" offset="0.0859375"/><stop stop-opacity="1" stop-color="rgb(81.062317%, 25.437927%, 21.339417%)" offset="0.09375"/><stop stop-opacity="1" stop-color="rgb(80.848694%, 25.297546%, 21.217346%)" offset="0.101562"/><stop stop-opacity="1" stop-color="rgb(80.633545%, 25.15564%, 21.09375%)" offset="0.109375"/><stop stop-opacity="1" stop-color="rgb(80.419922%, 25.015259%, 20.97168%)" offset="0.117188"/><stop stop-opacity="1" stop-color="rgb(80.204773%, 24.874878%, 20.849609%)" offset="0.125"/><stop stop-opacity="1" stop-color="rgb(79.989624%, 24.732971%, 20.726013%)" offset="0.132812"/><stop stop-opacity="1" stop-color="rgb(79.776001%, 24.59259%, 20.603943%)" offset="0.140625"/><stop stop-opacity="1" stop-color="rgb(79.560852%, 24.452209%, 20.481873%)" offset="0.148438"/><stop stop-opacity="1" stop-color="rgb(79.347229%, 24.310303%, 20.358276%)" offset="0.15625"/><stop stop-opacity="1" stop-color="rgb(79.13208%, 24.169922%, 20.236206%)" offset="0.164062"/><stop stop-opacity="1" stop-color="rgb(78.918457%, 24.029541%, 20.114136%)" offset="0.171875"/><stop stop-opacity="1" stop-color="rgb(78.703308%, 23.887634%, 19.99054%)" offset="0.179687"/><stop stop-opacity="1" stop-color="rgb(78.489685%, 23.747253%, 19.868469%)" offset="0.1875"/><stop stop-opacity="1" stop-color="rgb(78.274536%, 23.605347%, 19.746399%)" offset="0.195312"/><stop stop-opacity="1" stop-color="rgb(78.060913%, 23.464966%, 19.622803%)" offset="0.203125"/><stop stop-opacity="1" stop-color="rgb(77.845764%, 23.324585%, 19.500732%)" offset="0.210937"/><stop stop-opacity="1" stop-color="rgb(77.630615%, 23.182678%, 19.378662%)" offset="0.21875"/><stop stop-opacity="1" stop-color="rgb(77.416992%, 23.042297%, 19.255066%)" offset="0.226562"/><stop stop-opacity="1" stop-color="rgb(77.201843%, 22.901917%, 19.132996%)" offset="0.234375"/><stop stop-opacity="1" stop-color="rgb(76.98822%, 22.76001%, 19.010925%)" offset="0.242187"/><stop stop-opacity="1" stop-color="rgb(76.773071%, 22.619629%, 18.887329%)" offset="0.25"/><stop stop-opacity="1" stop-color="rgb(76.559448%, 22.479248%, 18.765259%)" offset="0.257813"/><stop stop-opacity="1" stop-color="rgb(76.344299%, 22.337341%, 18.643188%)" offset="0.265625"/><stop stop-opacity="1" stop-color="rgb(76.130676%, 22.19696%, 18.519592%)" offset="0.273438"/><stop stop-opacity="1" stop-color="rgb(75.915527%, 22.055054%, 18.397522%)" offset="0.28125"/><stop stop-opacity="1" stop-color="rgb(75.701904%, 21.914673%, 18.275452%)" offset="0.289062"/><stop stop-opacity="1" stop-color="rgb(75.486755%, 21.774292%, 18.151855%)" offset="0.296875"/><stop stop-opacity="1" stop-color="rgb(75.273132%, 21.632385%, 18.029785%)" offset="0.304688"/><stop stop-opacity="1" stop-color="rgb(75.057983%, 21.492004%, 17.907715%)" offset="0.3125"/><stop stop-opacity="1" stop-color="rgb(74.842834%, 21.351624%, 17.784119%)" offset="0.320312"/><stop stop-opacity="1" stop-color="rgb(74.629211%, 21.209717%, 17.662048%)" offset="0.328125"/><stop stop-opacity="1" stop-color="rgb(74.414062%, 21.069336%, 17.539978%)" offset="0.335938"/><stop stop-opacity="1" stop-color="rgb(74.200439%, 20.927429%, 17.416382%)" offset="0.34375"/><stop stop-opacity="1" stop-color="rgb(73.985291%, 20.787048%, 17.294312%)" offset="0.351562"/><stop stop-opacity="1" stop-color="rgb(73.771667%, 20.646667%, 17.172241%)" offset="0.359375"/><stop stop-opacity="1" stop-color="rgb(73.556519%, 20.504761%, 17.048645%)" offset="0.367188"/><stop stop-opacity="1" stop-color="rgb(73.342896%, 20.36438%, 16.926575%)" offset="0.375"/><stop stop-opacity="1" stop-color="rgb(73.127747%, 20.223999%, 16.804504%)" offset="0.382812"/><stop stop-opacity="1" stop-color="rgb(72.914124%, 20.082092%, 16.680908%)" offset="0.390625"/><stop stop-opacity="1" stop-color="rgb(72.698975%, 19.941711%, 16.558838%)" offset="0.398438"/><stop stop-opacity="1" stop-color="rgb(72.483826%, 19.801331%, 16.436768%)" offset="0.40625"/><stop stop-opacity="1" stop-color="rgb(72.270203%, 19.659424%, 16.313171%)" offset="0.414062"/><stop stop-opacity="1" stop-color="rgb(72.055054%, 19.519043%, 16.191101%)" offset="0.421875"/><stop stop-opacity="1" stop-color="rgb(71.841431%, 19.377136%, 16.069031%)" offset="0.429688"/><stop stop-opacity="1" stop-color="rgb(71.626282%, 19.236755%, 15.945435%)" offset="0.4375"/><stop stop-opacity="1" stop-color="rgb(71.412659%, 19.096375%, 15.823364%)" offset="0.445313"/><stop stop-opacity="1" stop-color="rgb(71.19751%, 18.954468%, 15.701294%)" offset="0.453125"/><stop stop-opacity="1" stop-color="rgb(70.983887%, 18.814087%, 15.577698%)" offset="0.460938"/><stop stop-opacity="1" stop-color="rgb(70.768738%, 18.673706%, 15.455627%)" offset="0.46875"/><stop stop-opacity="1" stop-color="rgb(70.555115%, 18.531799%, 15.333557%)" offset="0.476562"/><stop stop-opacity="1" stop-color="rgb(70.339966%, 18.391418%, 15.209961%)" offset="0.484375"/><stop stop-opacity="1" stop-color="rgb(70.124817%, 18.251038%, 15.087891%)" offset="0.492188"/><stop stop-opacity="1" stop-color="rgb(69.911194%, 18.109131%, 14.96582%)" offset="0.5"/><stop stop-opacity="1" stop-color="rgb(69.696045%, 17.96875%, 14.842224%)" offset="0.507813"/><stop stop-opacity="1" stop-color="rgb(69.482422%, 17.826843%, 14.720154%)" offset="0.515625"/><stop stop-opacity="1" stop-color="rgb(69.267273%, 17.686462%, 14.598083%)" offset="0.523438"/><stop stop-opacity="1" stop-color="rgb(69.05365%, 17.546082%, 14.474487%)" offset="0.53125"/><stop stop-opacity="1" stop-color="rgb(68.838501%, 17.404175%, 14.352417%)" offset="0.539062"/><stop stop-opacity="1" stop-color="rgb(68.624878%, 17.263794%, 14.230347%)" offset="0.546875"/><stop stop-opacity="1" stop-color="rgb(68.409729%, 17.123413%, 14.10675%)" offset="0.554688"/><stop stop-opacity="1" stop-color="rgb(68.196106%, 16.981506%, 13.98468%)" offset="0.5625"/><stop stop-opacity="1" stop-color="rgb(67.980957%, 16.841125%, 13.86261%)" offset="0.570312"/><stop stop-opacity="1" stop-color="rgb(67.765808%, 16.700745%, 13.739014%)" offset="0.578125"/><stop stop-opacity="1" stop-color="rgb(67.552185%, 16.558838%, 13.616943%)" offset="0.585937"/><stop stop-opacity="1" stop-color="rgb(67.337036%, 16.418457%, 13.494873%)" offset="0.59375"/><stop stop-opacity="1" stop-color="rgb(67.123413%, 16.27655%, 13.371277%)" offset="0.601562"/><stop stop-opacity="1" stop-color="rgb(66.908264%, 16.136169%, 13.249207%)" offset="0.609375"/><stop stop-opacity="1" stop-color="rgb(66.694641%, 15.995789%, 13.127136%)" offset="0.617188"/><stop stop-opacity="1" stop-color="rgb(66.479492%, 15.853882%, 13.00354%)" offset="0.625"/><stop stop-opacity="1" stop-color="rgb(66.265869%, 15.713501%, 12.88147%)" offset="0.632812"/><stop stop-opacity="1" stop-color="rgb(66.05072%, 15.57312%, 12.759399%)" offset="0.640625"/><stop stop-opacity="1" stop-color="rgb(65.837097%, 15.431213%, 12.635803%)" offset="0.648437"/><stop stop-opacity="1" stop-color="rgb(65.621948%, 15.290833%, 12.513733%)" offset="0.65625"/><stop stop-opacity="1" stop-color="rgb(65.406799%, 15.150452%, 12.391663%)" offset="0.664063"/><stop stop-opacity="1" stop-color="rgb(65.193176%, 15.008545%, 12.268066%)" offset="0.671875"/><stop stop-opacity="1" stop-color="rgb(64.978027%, 14.868164%, 12.145996%)" offset="0.679688"/><stop stop-opacity="1" stop-color="rgb(64.764404%, 14.726257%, 12.023926%)" offset="0.6875"/><stop stop-opacity="1" stop-color="rgb(64.549255%, 14.585876%, 11.90033%)" offset="0.695312"/><stop stop-opacity="1" stop-color="rgb(64.335632%, 14.445496%, 11.778259%)" offset="0.703125"/><stop stop-opacity="1" stop-color="rgb(64.120483%, 14.303589%, 11.656189%)" offset="0.710938"/><stop stop-opacity="1" stop-color="rgb(63.90686%, 14.163208%, 11.532593%)" offset="0.71875"/><stop stop-opacity="1" stop-color="rgb(63.691711%, 14.022827%, 11.410522%)" offset="0.726563"/><stop stop-opacity="1" stop-color="rgb(63.478088%, 13.88092%, 11.288452%)" offset="0.734375"/><stop stop-opacity="1" stop-color="rgb(63.262939%, 13.74054%, 11.164856%)" offset="0.742188"/><stop stop-opacity="1" stop-color="rgb(63.047791%, 13.600159%, 11.042786%)" offset="0.75"/><stop stop-opacity="1" stop-color="rgb(62.834167%, 13.458252%, 10.920715%)" offset="0.757812"/><stop stop-opacity="1" stop-color="rgb(62.619019%, 13.317871%, 10.797119%)" offset="0.765625"/><stop stop-opacity="1" stop-color="rgb(62.405396%, 13.175964%, 10.675049%)" offset="0.773438"/><stop stop-opacity="1" stop-color="rgb(62.190247%, 13.035583%, 10.552979%)" offset="0.78125"/><stop stop-opacity="1" stop-color="rgb(61.976624%, 12.895203%, 10.429382%)" offset="0.789063"/><stop stop-opacity="1" stop-color="rgb(61.761475%, 12.753296%, 10.307312%)" offset="0.796875"/><stop stop-opacity="1" stop-color="rgb(61.547852%, 12.612915%, 10.185242%)" offset="0.804688"/><stop stop-opacity="1" stop-color="rgb(61.332703%, 12.472534%, 10.061646%)" offset="0.8125"/><stop stop-opacity="1" stop-color="rgb(61.11908%, 12.330627%, 9.939575%)" offset="0.820313"/><stop stop-opacity="1" stop-color="rgb(60.903931%, 12.190247%, 9.817505%)" offset="0.828125"/><stop stop-opacity="1" stop-color="rgb(60.690308%, 12.049866%, 9.693909%)" offset="0.835938"/><stop stop-opacity="1" stop-color="rgb(60.475159%, 11.907959%, 9.571838%)" offset="0.84375"/><stop stop-opacity="1" stop-color="rgb(60.26001%, 11.767578%, 9.449768%)" offset="0.851562"/><stop stop-opacity="1" stop-color="rgb(60.046387%, 11.625671%, 9.326172%)" offset="0.859375"/><stop stop-opacity="1" stop-color="rgb(59.831238%, 11.485291%, 9.204102%)" offset="0.867187"/><stop stop-opacity="1" stop-color="rgb(59.617615%, 11.34491%, 9.082031%)" offset="0.875"/><stop stop-opacity="1" stop-color="rgb(59.402466%, 11.203003%, 8.958435%)" offset="0.882813"/><stop stop-opacity="1" stop-color="rgb(59.188843%, 11.062622%, 8.836365%)" offset="0.890625"/><stop stop-opacity="1" stop-color="rgb(58.973694%, 10.922241%, 8.714294%)" offset="0.898438"/><stop stop-opacity="1" stop-color="rgb(58.760071%, 10.780334%, 8.590698%)" offset="0.90625"/><stop stop-opacity="1" stop-color="rgb(58.544922%, 10.639954%, 8.468628%)" offset="0.914062"/><stop stop-opacity="1" stop-color="rgb(58.331299%, 10.498047%, 8.346558%)" offset="0.921875"/><stop stop-opacity="1" stop-color="rgb(58.11615%, 10.357666%, 8.222961%)" offset="0.929688"/><stop stop-opacity="1" stop-color="rgb(57.901001%, 10.217285%, 8.100891%)" offset="0.9375"/><stop stop-opacity="1" stop-color="rgb(57.687378%, 10.075378%, 7.978821%)" offset="0.945312"/><stop stop-opacity="1" stop-color="rgb(57.472229%, 9.934998%, 7.855225%)" offset="0.953125"/><stop stop-opacity="1" stop-color="rgb(57.258606%, 9.794617%, 7.733154%)" offset="0.960937"/><stop stop-opacity="1" stop-color="rgb(57.043457%, 9.65271%, 7.611084%)" offset="0.96875"/><stop stop-opacity="1" stop-color="rgb(56.829834%, 9.512329%, 7.487488%)" offset="0.976563"/><stop stop-opacity="1" stop-color="rgb(56.614685%, 9.371948%, 7.365417%)" offset="0.984375"/><stop stop-opacity="1" stop-color="rgb(56.401062%, 9.230042%, 7.243347%)" offset="0.992188"/><stop stop-opacity="1" stop-color="rgb(56.185913%, 9.089661%, 7.119751%)" offset="1"/></linearGradient><clipPath id="fa232a01bc"><path d="M 1.046875 0 L 283.953125 0 L 283.953125 66.257812 L 1.046875 66.257812 Z M 1.046875 0 " clip-rule="nonzero"/></clipPath></defs><g clip-path="url(#11497241b6)"><g clip-path="url(#e260099957)"><path fill="url(#31b19cda92)" d="M 5.679688 3.679688 L 5.679688 62.578125 L 279.320312 62.578125 L 279.320312 3.679688 Z M 5.679688 3.679688 " fill-rule="nonzero"/></g></g><g clip-path="url(#fa232a01bc)"><path stroke-linecap="butt" transform="matrix(0.739574, 0, 0, 0.736213, 1.98099, 0)" fill="none" stroke-linejoin="miter" d="M 23.001355 4.998127 L 356.998658 4.998127 C 358.181772 4.998127 359.354323 5.114857 360.511028 5.348315 C 361.673015 5.576467 362.79803 5.916043 363.886072 6.372347 C 364.979396 6.823346 366.019902 7.375156 367.00231 8.033084 C 367.984717 8.691012 368.893179 9.433833 369.727697 10.27216 C 370.562215 11.105181 371.312225 12.017791 371.967163 12.999376 C 372.622101 13.980962 373.176686 15.020912 373.630917 16.113921 C 374.079867 17.201624 374.423181 18.331773 374.655578 19.488453 C 374.882694 20.645132 374.998893 21.817729 374.998893 23.000937 L 374.998893 67.002499 C 374.998893 68.180402 374.882694 69.352998 374.655578 70.509678 C 374.423181 71.671663 374.079867 72.796507 373.630917 73.889515 C 373.176686 74.982524 372.622101 76.017168 371.967163 76.998754 C 371.312225 77.98034 370.562215 78.892949 369.727697 79.72597 C 368.893179 80.564297 367.984717 81.312425 367.00231 81.965046 C 366.019902 82.622974 364.979396 83.18009 363.886072 83.631089 C 362.79803 84.082088 361.673015 84.421663 360.511028 84.655121 C 359.354323 84.883274 358.181772 85.000003 356.998658 85.000003 L 23.001355 85.000003 C 21.818241 85.000003 20.645691 84.883274 19.488986 84.655121 C 18.326999 84.421663 17.201984 84.082088 16.113942 83.631089 C 15.020618 83.18009 13.980111 82.622974 12.997704 81.965046 C 12.015297 81.312425 11.106834 80.564297 10.272316 79.72597 C 9.437798 78.892949 8.687789 77.98034 8.032851 76.998754 C 7.377912 76.017168 6.823328 74.982524 6.369097 73.889515 C 5.920147 72.796507 5.576833 71.671663 5.344435 70.509678 C 5.11732 69.352998 5.001121 68.180402 5.001121 67.002499 L 5.001121 23.000937 C 5.001121 21.817729 5.11732 20.645132 5.344435 19.488453 C 5.576833 18.331773 5.920147 17.201624 6.369097 16.113921 C 6.823328 15.020912 7.377912 13.980962 8.032851 12.999376 C 8.687789 12.017791 9.437798 11.105181 10.272316 10.27216 C 11.106834 9.433833 12.015297 8.691012 12.997704 8.033084 C 13.980111 7.375156 15.020618 6.823346 16.113942 6.372347 C 17.201984 5.916043 18.326999 5.576467 19.488986 5.348315 C 20.645691 5.114857 21.818241 4.998127 23.001355 4.998127 Z M 23.001355 4.998127 " stroke="#f3a19a" stroke-width="3" stroke-opacity="1" stroke-miterlimit="4"/></g></svg>