<svg xmlns="http://www.w3.org/2000/svg" xmlns:xlink="http://www.w3.org/1999/xlink" width="96" zoomAndPan="magnify" viewBox="0 0 72 72" height="96" preserveAspectRatio="xMidYMid meet" version="1.0"><path stroke-linecap="butt" transform="matrix(0.75, 0, 0, 0.75, 0, 0.000002)" fill="none" stroke-linejoin="miter" d="M 86.000004 47.999999 C 86.000004 49.244791 85.937504 50.484374 85.817712 51.723958 C 85.692712 52.963541 85.51042 54.192708 85.270837 55.411458 C 85.026045 56.635416 84.723962 57.838541 84.364587 59.03125 C 84.000004 60.223958 83.583337 61.390625 83.109378 62.541667 C 82.630212 63.692708 82.098962 64.817708 81.51042 65.911458 C 80.927087 67.010417 80.286462 68.078125 79.593753 69.109375 C 78.906253 70.145834 78.161462 71.145834 77.375003 72.109375 C 76.583337 73.067709 75.750003 73.989584 74.869795 74.869792 C 73.989586 75.75 73.067711 76.583334 72.109378 77.375001 C 71.145836 78.161459 70.145836 78.906251 69.109378 79.593751 C 68.078128 80.286459 67.010419 80.927084 65.911461 81.510417 C 64.817711 82.098959 63.692711 82.630209 62.541669 83.109376 C 61.390628 83.583334 60.223961 84.000001 59.031252 84.364584 C 57.838544 84.723959 56.635419 85.026043 55.411461 85.270834 C 54.192711 85.510418 52.963544 85.692709 51.72396 85.817709 C 50.484377 85.937501 49.244794 86.000001 48.000002 86.000001 C 46.75521 86.000001 45.515627 85.937501 44.276044 85.817709 C 43.03646 85.692709 41.807293 85.510418 40.588543 85.270834 C 39.364585 85.026043 38.16146 84.723959 36.968752 84.364584 C 35.776043 84.000001 34.609376 83.583334 33.458335 83.109376 C 32.307293 82.630209 31.182293 82.098959 30.088543 81.510417 C 28.989585 80.927084 27.921876 80.286459 26.890626 79.593751 C 25.854168 78.906251 24.854168 78.161459 23.890626 77.375001 C 22.932293 76.583334 22.010418 75.75 21.130209 74.869792 C 20.250001 73.989584 19.416667 73.067709 18.625001 72.109375 C 17.838542 71.145834 17.093751 70.145834 16.406251 69.109375 C 15.713542 68.078125 15.072917 67.010417 14.489584 65.911458 C 13.901042 64.817708 13.369792 63.692708 12.890626 62.541667 C 12.416667 61.390625 12.000001 60.223958 11.635417 59.03125 C 11.276042 57.838541 10.973959 56.635416 10.729167 55.411458 C 10.489584 54.192708 10.307292 52.963541 10.182292 51.723958 C 10.0625 50.484374 10 49.244791 10 47.999999 C 10 46.755208 10.0625 45.515624 10.182292 44.276041 C 10.307292 43.036457 10.489584 41.807291 10.729167 40.588541 C 10.973959 39.364582 11.276042 38.161457 11.635417 36.968749 C 12.000001 35.77604 12.416667 34.609374 12.890626 33.458332 C 13.369792 32.30729 13.901042 31.18229 14.489584 30.08854 C 15.072917 28.989582 15.713542 27.921873 16.406251 26.890623 C 17.093751 25.854165 17.838542 24.854165 18.625001 23.890623 C 19.416667 22.93229 20.250001 22.010415 21.130209 21.130207 C 22.010418 20.249998 22.932293 19.416665 23.890626 18.624998 C 24.854168 17.83854 25.854168 17.093748 26.890626 16.406248 C 27.921876 15.71354 28.989585 15.072915 30.088543 14.489581 C 31.182293 13.90104 32.307293 13.36979 33.458335 12.890623 C 34.609376 12.416665 35.776043 11.999998 36.968752 11.635414 C 38.16146 11.276039 39.364585 10.973956 40.588543 10.729164 C 41.807293 10.489581 43.03646 10.307289 44.276044 10.182289 C 45.515627 10.062498 46.75521 9.999998 48.000002 9.999998 C 49.244794 9.999998 50.484377 10.062498 51.72396 10.182289 C 52.963544 10.307289 54.192711 10.489581 55.411461 10.729164 C 56.635419 10.973956 57.838544 11.276039 59.031252 11.635414 C 60.223961 11.999998 61.390628 12.416665 62.541669 12.890623 C 63.692711 13.36979 64.817711 13.90104 65.911461 14.489581 C 67.010419 15.072915 68.078128 15.71354 69.109378 16.406248 C 70.145836 17.093748 71.145836 17.83854 72.109378 18.624998 C 73.067711 19.416665 73.989586 20.249998 74.869795 21.130207 C 75.750003 22.010415 76.583337 22.93229 77.375003 23.890623 C 78.161462 24.854165 78.906253 25.854165 79.593753 26.890623 C 80.286462 27.921873 80.927087 28.989582 81.51042 30.08854 C 82.098962 31.18229 82.630212 32.30729 83.109378 33.458332 C 83.583337 34.609374 84.000004 35.77604 84.364587 36.968749 C 84.723962 38.161457 85.026045 39.364582 85.270837 40.588541 C 85.51042 41.807291 85.692712 43.036457 85.817712 44.276041 C 85.937504 45.515624 86.000004 46.755208 86.000004 47.999999 Z M 86.000004 47.999999 " stroke="#2aa8c8" stroke-width="6" stroke-opacity="0.9" stroke-miterlimit="4"/><path stroke-linecap="butt" transform="matrix(0.75, 0, 0, 0.75, 0, 0.000002)" fill="none" stroke-linejoin="miter" d="M 86.000004 47.999999 C 86.000004 49.244791 85.937504 50.484374 85.817712 51.723958 C 85.692712 52.963541 85.51042 54.192708 85.270837 55.411458 C 85.026045 56.635416 84.723962 57.838541 84.364587 59.03125 C 84.000004 60.223958 83.583337 61.390625 83.109378 62.541667 C 82.630212 63.692708 82.098962 64.817708 81.51042 65.911458 C 80.927087 67.010417 80.286462 68.078125 79.593753 69.109375 C 78.906253 70.145834 78.161462 71.145834 77.375003 72.109375 C 76.583337 73.067709 75.750003 73.989584 74.869795 74.869792 C 73.989586 75.75 73.067711 76.583334 72.109378 77.375001 C 71.145836 78.161459 70.145836 78.906251 69.109378 79.593751 C 68.078128 80.286459 67.010419 80.927084 65.911461 81.510417 C 64.817711 82.098959 63.692711 82.630209 62.541669 83.109376 C 61.390628 83.583334 60.223961 84.000001 59.031252 84.364584 C 57.838544 84.723959 56.635419 85.026043 55.411461 85.270834 C 54.192711 85.510418 52.963544 85.692709 51.72396 85.817709 C 50.484377 85.937501 49.244794 86.000001 48.000002 86.000001 C 46.75521 86.000001 45.515627 85.937501 44.276044 85.817709 C 43.03646 85.692709 41.807293 85.510418 40.588543 85.270834 C 39.364585 85.026043 38.16146 84.723959 36.968752 84.364584 C 35.776043 84.000001 34.609376 83.583334 33.458335 83.109376 C 32.307293 82.630209 31.182293 82.098959 30.088543 81.510417 C 28.989585 80.927084 27.921876 80.286459 26.890626 79.593751 C 25.854168 78.906251 24.854168 78.161459 23.890626 77.375001 C 22.932293 76.583334 22.010418 75.75 21.130209 74.869792 C 20.250001 73.989584 19.416667 73.067709 18.625001 72.109375 C 17.838542 71.145834 17.093751 70.145834 16.406251 69.109375 C 15.713542 68.078125 15.072917 67.010417 14.489584 65.911458 C 13.901042 64.817708 13.369792 63.692708 12.890626 62.541667 C 12.416667 61.390625 12.000001 60.223958 11.635417 59.03125 C 11.276042 57.838541 10.973959 56.635416 10.729167 55.411458 C 10.489584 54.192708 10.307292 52.963541 10.182292 51.723958 C 10.0625 50.484374 10 49.244791 10 47.999999 C 10 46.755208 10.0625 45.515624 10.182292 44.276041 C 10.307292 43.036457 10.489584 41.807291 10.729167 40.588541 C 10.973959 39.364582 11.276042 38.161457 11.635417 36.968749 C 12.000001 35.77604 12.416667 34.609374 12.890626 33.458332 C 13.369792 32.30729 13.901042 31.18229 14.489584 30.08854 C 15.072917 28.989582 15.713542 27.921873 16.406251 26.890623 C 17.093751 25.854165 17.838542 24.854165 18.625001 23.890623 C 19.416667 22.93229 20.250001 22.010415 21.130209 21.130207 C 22.010418 20.249998 22.932293 19.416665 23.890626 18.624998 C 24.854168 17.83854 25.854168 17.093748 26.890626 16.406248 C 27.921876 15.71354 28.989585 15.072915 30.088543 14.489581 C 31.182293 13.90104 32.307293 13.36979 33.458335 12.890623 C 34.609376 12.416665 35.776043 11.999998 36.968752 11.635414 C 38.16146 11.276039 39.364585 10.973956 40.588543 10.729164 C 41.807293 10.489581 43.03646 10.307289 44.276044 10.182289 C 45.515627 10.062498 46.75521 9.999998 48.000002 9.999998 C 49.244794 9.999998 50.484377 10.062498 51.72396 10.182289 C 52.963544 10.307289 54.192711 10.489581 55.411461 10.729164 C 56.635419 10.973956 57.838544 11.276039 59.031252 11.635414 C 60.223961 11.999998 61.390628 12.416665 62.541669 12.890623 C 63.692711 13.36979 64.817711 13.90104 65.911461 14.489581 C 67.010419 15.072915 68.078128 15.71354 69.109378 16.406248 C 70.145836 17.093748 71.145836 17.83854 72.109378 18.624998 C 73.067711 19.416665 73.989586 20.249998 74.869795 21.130207 C 75.750003 22.010415 76.583337 22.93229 77.375003 23.890623 C 78.161462 24.854165 78.906253 25.854165 79.593753 26.890623 C 80.286462 27.921873 80.927087 28.989582 81.51042 30.08854 C 82.098962 31.18229 82.630212 32.30729 83.109378 33.458332 C 83.583337 34.609374 84.000004 35.77604 84.364587 36.968749 C 84.723962 38.161457 85.026045 39.364582 85.270837 40.588541 C 85.51042 41.807291 85.692712 43.036457 85.817712 44.276041 C 85.937504 45.515624 86.000004 46.755208 86.000004 47.999999 Z M 86.000004 47.999999 " stroke="#2aa8c8" stroke-width="14" stroke-opacity="0.18" stroke-miterlimit="4"/><path stroke-linecap="butt" transform="matrix(0.75, 0, 0, 0.75, 0, 0.000002)" fill="none" stroke-linejoin="miter" d="M 86.000004 47.999999 C 86.000004 49.244791 85.937504 50.484374 85.817712 51.723958 C 85.692712 52.963541 85.51042 54.192708 85.270837 55.411458 C 85.026045 56.635416 84.723962 57.838541 84.364587 59.03125 C 84.000004 60.223958 83.583337 61.390625 83.109378 62.541667 C 82.630212 63.692708 82.098962 64.817708 81.51042 65.911458 C 80.927087 67.010417 80.286462 68.078125 79.593753 69.109375 C 78.906253 70.145834 78.161462 71.145834 77.375003 72.109375 C 76.583337 73.067709 75.750003 73.989584 74.869795 74.869792 C 73.989586 75.75 73.067711 76.583334 72.109378 77.375001 C 71.145836 78.161459 70.145836 78.906251 69.109378 79.593751 C 68.078128 80.286459 67.010419 80.927084 65.911461 81.510417 C 64.817711 82.098959 63.692711 82.630209 62.541669 83.109376 C 61.390628 83.583334 60.223961 84.000001 59.031252 84.364584 C 57.838544 84.723959 56.635419 85.026043 55.411461 85.270834 C 54.192711 85.510418 52.963544 85.692709 51.72396 85.817709 C 50.484377 85.937501 49.244794 86.000001 48.000002 86.000001 C 46.75521 86.000001 45.515627 85.937501 44.276044 85.817709 C 43.03646 85.692709 41.807293 85.510418 40.588543 85.270834 C 39.364585 85.026043 38.16146 84.723959 36.968752 84.364584 C 35.776043 84.000001 34.609376 83.583334 33.458335 83.109376 C 32.307293 82.630209 31.182293 82.098959 30.088543 81.510417 C 28.989585 80.927084 27.921876 80.286459 26.890626 79.593751 C 25.854168 78.906251 24.854168 78.161459 23.890626 77.375001 C 22.932293 76.583334 22.010418 75.75 21.130209 74.869792 C 20.250001 73.989584 19.416667 73.067709 18.625001 72.109375 C 17.838542 71.145834 17.093751 70.145834 16.406251 69.109375 C 15.713542 68.078125 15.072917 67.010417 14.489584 65.911458 C 13.901042 64.817708 13.369792 63.692708 12.890626 62.541667 C 12.416667 61.390625 12.000001 60.223958 11.635417 59.03125 C 11.276042 57.838541 10.973959 56.635416 10.729167 55.411458 C 10.489584 54.192708 10.307292 52.963541 10.182292 51.723958 C 10.0625 50.484374 10 49.244791 10 47.999999 C 10 46.755208 10.0625 45.515624 10.182292 44.276041 C 10.307292 43.036457 10.489584 41.807291 10.729167 40.588541 C 10.973959 39.364582 11.276042 38.161457 11.635417 36.968749 C 12.000001 35.77604 12.416667 34.609374 12.890626 33.458332 C 13.369792 32.30729 13.901042 31.18229 14.489584 30.08854 C 15.072917 28.989582 15.713542 27.921873 16.406251 26.890623 C 17.093751 25.854165 17.838542 24.854165 18.625001 23.890623 C 19.416667 22.93229 20.250001 22.010415 21.130209 21.130207 C 22.010418 20.249998 22.932293 19.416665 23.890626 18.624998 C 24.854168 17.83854 25.854168 17.093748 26.890626 16.406248 C 27.921876 15.71354 28.989585 15.072915 30.088543 14.489581 C 31.182293 13.90104 32.307293 13.36979 33.458335 12.890623 C 34.609376 12.416665 35.776043 11.999998 36.968752 11.635414 C 38.16146 11.276039 39.364585 10.973956 40.588543 10.729164 C 41.807293 10.489581 43.03646 10.307289 44.276044 10.182289 C 45.515627 10.062498 46.75521 9.999998 48.000002 9.999998 C 49.244794 9.999998 50.484377 10.062498 51.72396 10.182289 C 52.963544 10.307289 54.192711 10.489581 55.411461 10.729164 C 56.635419 10.973956 57.838544 11.276039 59.031252 11.635414 C 60.223961 11.999998 61.390628 12.416665 62.541669 12.890623 C 63.692711 13.36979 64.817711 13.90104 65.911461 14.489581 C 67.010419 15.072915 68.078128 15.71354 69.109378 16.406248 C 70.145836 17.093748 71.145836 17.83854 72.109378 18.624998 C 73.067711 19.416665 73.989586 20.249998 74.869795 21.130207 C 75.750003 22.010415 76.583337 22.93229 77.375003 23.890623 C 78.161462 24.854165 78.906253 25.854165 79.593753 26.890623 C 80.286462 27.921873 80.927087 28.989582 81.51042 30.08854 C 82.098962 31.18229 82.630212 32.30729 83.109378 33.458332 C 83.583337 34.609374 84.000004 35.77604 84.364587 36.968749 C 84.723962 38.161457 85.026045 39.364582 85.270837 40.588541 C 85.51042 41.807291 85.692712 43.036457 85.817712 44.276041 C 85.937504 45.515624 86.000004 46.755208 86.000004 47.999999 Z M 86.000004 47.999999 " stroke="#a6e5f2" stroke-width="20" stroke-opacity="0.1" stroke-miterlimit="4"/></svg>