<svg xmlns="http://www.w3.org/2000/svg" xmlns:xlink="http://www.w3.org/1999/xlink" width="130" zoomAndPan="magnify" viewBox="0 0 97.5 48" height="64" preserveAspectRatio="xMidYMid meet" version="1.0"><defs><clipPath id="7c9ac56357"><path d="M 0.75 0 L 96.261719 0 L 96.261719 47.019531 L 0.75 47.019531 Z M 0.75 0 " clip-rule="nonzero"/></clipPath></defs><g clip-path="url(#7c9ac56357)"><path fill="#c0392b" d="M 24.261719 0 L 72.75 0 C 73.519531 0 74.289062 0.0390625 75.054688 0.113281 C 75.820312 0.1875 76.582031 0.300781 77.335938 0.453125 C 78.09375 0.601562 78.835938 0.789062 79.574219 1.011719 C 80.3125 1.234375 81.035156 1.496094 81.746094 1.789062 C 82.457031 2.085938 83.152344 2.414062 83.832031 2.777344 C 84.511719 3.140625 85.171875 3.535156 85.8125 3.960938 C 86.453125 4.390625 87.070312 4.847656 87.664062 5.335938 C 88.261719 5.824219 88.828125 6.339844 89.375 6.886719 C 89.917969 7.429688 90.433594 8 90.921875 8.59375 C 91.410156 9.191406 91.871094 9.808594 92.296875 10.449219 C 92.726562 11.089844 93.121094 11.75 93.484375 12.425781 C 93.847656 13.105469 94.175781 13.800781 94.46875 14.511719 C 94.765625 15.226562 95.023438 15.949219 95.246094 16.6875 C 95.472656 17.421875 95.660156 18.167969 95.808594 18.921875 C 95.957031 19.679688 96.070312 20.441406 96.148438 21.207031 C 96.222656 21.972656 96.261719 22.738281 96.261719 23.511719 C 96.261719 24.28125 96.222656 25.046875 96.148438 25.816406 C 96.070312 26.582031 95.957031 27.339844 95.808594 28.097656 C 95.660156 28.851562 95.472656 29.597656 95.246094 30.335938 C 95.023438 31.070312 94.765625 31.796875 94.46875 32.507812 C 94.175781 33.21875 93.847656 33.914062 93.484375 34.59375 C 93.121094 35.273438 92.726562 35.929688 92.296875 36.570312 C 91.871094 37.210938 91.410156 37.828125 90.921875 38.425781 C 90.433594 39.019531 89.917969 39.589844 89.375 40.132812 C 88.828125 40.679688 88.261719 41.195312 87.664062 41.683594 C 87.070312 42.171875 86.453125 42.628906 85.8125 43.058594 C 85.171875 43.484375 84.511719 43.882812 83.832031 44.246094 C 83.152344 44.605469 82.457031 44.9375 81.746094 45.230469 C 81.035156 45.527344 80.3125 45.785156 79.574219 46.007812 C 78.835938 46.230469 78.09375 46.417969 77.335938 46.570312 C 76.582031 46.71875 75.820312 46.832031 75.054688 46.90625 C 74.289062 46.984375 73.519531 47.019531 72.75 47.019531 L 24.261719 47.019531 C 23.488281 47.019531 22.722656 46.984375 21.957031 46.90625 C 21.191406 46.832031 20.429688 46.71875 19.671875 46.570312 C 18.917969 46.417969 18.171875 46.230469 17.4375 46.007812 C 16.699219 45.785156 15.976562 45.527344 15.261719 45.230469 C 14.550781 44.9375 13.855469 44.605469 13.175781 44.246094 C 12.5 43.882812 11.839844 43.484375 11.199219 43.058594 C 10.558594 42.628906 9.941406 42.171875 9.34375 41.683594 C 8.75 41.195312 8.179688 40.679688 7.636719 40.132812 C 7.089844 39.589844 6.574219 39.019531 6.085938 38.425781 C 5.597656 37.828125 5.140625 37.210938 4.710938 36.570312 C 4.285156 35.929688 3.890625 35.273438 3.527344 34.59375 C 3.164062 33.914062 2.835938 33.21875 2.539062 32.507812 C 2.246094 31.796875 1.984375 31.070312 1.761719 30.335938 C 1.539062 29.597656 1.351562 28.851562 1.203125 28.097656 C 1.050781 27.339844 0.9375 26.582031 0.863281 25.816406 C 0.789062 25.046875 0.75 24.28125 0.75 23.511719 C 0.75 22.738281 0.789062 21.972656 0.863281 21.207031 C 0.9375 20.441406 1.050781 19.679688 1.203125 18.921875 C 1.351562 18.167969 1.539062 17.421875 1.761719 16.6875 C 1.984375 15.949219 2.246094 15.226562 2.539062 14.511719 C 2.835938 13.800781 3.164062 13.105469 3.527344 12.425781 C 3.890625 11.75 4.285156 11.089844 4.710938 10.449219 C 5.140625 9.808594 5.597656 9.191406 6.085938 8.59375 C 6.574219 8 7.089844 7.429688 7.636719 6.886719 C 8.179688 6.339844 8.75 5.824219 9.34375 5.335938 C 9.941406 4.847656 10.558594 4.390625 11.199219 3.960938 C 11.839844 3.535156 12.5 3.140625 13.175781 2.777344 C 13.855469 2.414062 14.550781 2.085938 15.261719 1.789062 C 15.976562 1.496094 16.699219 1.234375 17.4375 1.011719 C 18.171875 0.789062 18.917969 0.601562 19.671875 0.453125 C 20.429688 0.300781 21.191406 0.1875 21.957031 0.113281 C 22.722656 0.0390625 23.488281 0 24.261719 0 Z M 24.261719 0 " fill-opacity="1" fill-rule="nonzero"/><path stroke-linecap="butt" transform="matrix(0.734694, 0, 0, 0.734694, 0.75, 0.00000195918)" fill="none" stroke-linejoin="miter" d="M 32.002063 1.999129 L 98.000004 1.999129 C 98.983619 1.999129 99.961918 2.046981 100.940217 2.142684 C 101.918515 2.238387 102.891497 2.387259 103.853845 2.578665 C 104.816193 2.770071 105.767908 3.004012 106.708988 3.291122 C 107.650069 3.578231 108.575199 3.907875 109.479062 4.285371 C 110.388242 4.65755 111.276154 5.07758 112.142799 5.540145 C 113.009444 6.008027 113.849505 6.50781 114.668299 7.055445 C 115.481775 7.603079 116.273984 8.187932 117.034293 8.810002 C 117.789284 9.432072 118.517691 10.091361 119.214197 10.787867 C 119.905386 11.479056 120.564675 12.207463 121.192062 12.967771 C 121.814132 13.728079 122.398985 14.514972 122.946619 15.333765 C 123.488937 16.147242 123.994037 16.992619 124.456602 17.859264 C 124.919167 18.725909 125.339197 19.613822 125.716693 20.517685 C 126.094189 21.426864 126.423833 22.351995 126.705625 23.293075 C 126.992735 24.234156 127.231993 25.185871 127.423399 26.148219 C 127.614805 27.110567 127.75836 28.083549 127.854063 29.061847 C 127.949766 30.034829 127.997618 31.018445 127.997618 32.00206 C 127.997618 32.980359 127.949766 33.963974 127.854063 34.942273 C 127.75836 35.920571 127.614805 36.888236 127.423399 37.850585 C 127.231993 38.818249 126.992735 39.769964 126.705625 40.711045 C 126.423833 41.646809 126.094189 42.571939 125.716693 43.481119 C 125.339197 44.390298 124.919167 45.272894 124.456602 46.139539 C 123.994037 47.006184 123.488937 47.851561 122.946619 48.665038 C 122.398985 49.483831 121.814132 50.270724 121.192062 51.031032 C 120.564675 51.79134 119.905386 52.519747 119.214197 53.210937 C 118.517691 53.907443 117.789284 54.566731 117.034293 55.188801 C 116.273984 55.816188 115.481775 56.395724 114.668299 56.943359 C 113.849505 57.490993 113.009444 57.996093 112.142799 58.458658 C 111.276154 58.921223 110.388242 59.341254 109.479062 59.718749 C 108.575199 60.090928 107.650069 60.420572 106.708988 60.707682 C 105.767908 60.994791 104.816193 61.234049 103.853845 61.425455 C 102.891497 61.616861 101.918515 61.760416 100.940217 61.856119 C 99.961918 61.951822 98.983619 61.999674 98.000004 61.999674 L 32.002063 61.999674 C 31.018448 61.999674 30.034832 61.951822 29.06185 61.856119 C 28.083552 61.760416 27.11057 61.616861 26.148222 61.425455 C 25.185874 61.234049 24.234159 60.994791 23.293079 60.707682 C 22.351998 60.420572 21.426868 60.090928 20.517688 59.718749 C 19.613825 59.341254 18.725913 58.921223 17.859268 58.458658 C 16.992623 57.996093 16.147245 57.490993 15.333768 56.943359 C 14.514975 56.395724 13.728083 55.816188 12.967774 55.188801 C 12.207466 54.566731 11.479059 53.907443 10.78787 53.210937 C 10.091364 52.519747 9.432076 51.79134 8.810005 51.031032 C 8.187935 50.270724 7.603082 49.483831 7.055448 48.665038 C 6.507813 47.851561 6.00803 47.006184 5.540148 46.139539 C 5.077583 45.272894 4.657553 44.390298 4.285374 43.481119 C 3.907878 42.571939 3.578234 41.646809 3.291125 40.711045 C 3.004015 39.769964 2.770074 38.818249 2.578668 37.850585 C 2.387262 36.888236 2.23839 35.920571 2.142687 34.942273 C 2.046984 33.963974 1.999133 32.980359 1.999133 32.00206 C 1.999133 31.018445 2.046984 30.034829 2.142687 29.061847 C 2.23839 28.083549 2.387262 27.110567 2.578668 26.148219 C 2.770074 25.185871 3.004015 24.234156 3.291125 23.293075 C 3.578234 22.351995 3.907878 21.426864 4.285374 20.517685 C 4.657553 19.613822 5.077583 18.725909 5.540148 17.859264 C 6.00803 16.992619 6.507813 16.147242 7.055448 15.333765 C 7.603082 14.514972 8.187935 13.728079 8.810005 12.967771 C 9.432076 12.207463 10.091364 11.479056 10.78787 10.787867 C 11.479059 10.091361 12.207466 9.432072 12.967774 8.810002 C 13.728083 8.187932 14.514975 7.603079 15.333768 7.055445 C 16.147245 6.50781 16.992623 6.008027 17.859268 5.540145 C 18.725913 5.07758 19.613825 4.65755 20.517688 4.285371 C 21.426868 3.907875 22.351998 3.578231 23.293079 3.291122 C 24.234159 3.004012 25.185874 2.770071 26.148222 2.578665 C 27.11057 2.387259 28.083552 2.238387 29.06185 2.142684 C 30.034832 2.046981 31.018448 1.999129 32.002063 1.999129 Z M 32.002063 1.999129 " stroke="#922b21" stroke-width="4" stroke-opacity="1" stroke-miterlimit="4"/></g><path fill="#ffffff" d="M 41.894531 23.511719 C 41.894531 24.085938 41.863281 24.664062 41.808594 25.238281 C 41.75 25.8125 41.667969 26.382812 41.554688 26.949219 C 41.441406 27.515625 41.300781 28.074219 41.132812 28.628906 C 40.964844 29.179688 40.773438 29.722656 40.550781 30.257812 C 40.328125 30.792969 40.082031 31.3125 39.8125 31.820312 C 39.539062 32.332031 39.242188 32.828125 38.921875 33.304688 C 38.601562 33.785156 38.257812 34.25 37.890625 34.695312 C 37.523438 35.144531 37.136719 35.570312 36.726562 35.976562 C 36.320312 36.386719 35.894531 36.773438 35.445312 37.140625 C 35 37.507812 34.535156 37.851562 34.054688 38.171875 C 33.578125 38.492188 33.082031 38.789062 32.570312 39.0625 C 32.0625 39.332031 31.542969 39.578125 31.007812 39.800781 C 30.472656 40.023438 29.929688 40.214844 29.378906 40.382812 C 28.824219 40.550781 28.265625 40.691406 27.699219 40.804688 C 27.132812 40.917969 26.5625 41 25.988281 41.058594 C 25.414062 41.113281 24.835938 41.144531 24.261719 41.144531 C 23.683594 41.144531 23.105469 41.113281 22.53125 41.058594 C 21.957031 41 21.386719 40.917969 20.820312 40.804688 C 20.253906 40.691406 19.695312 40.550781 19.140625 40.382812 C 18.589844 40.214844 18.046875 40.023438 17.511719 39.800781 C 16.980469 39.578125 16.457031 39.332031 15.949219 39.0625 C 15.4375 38.789062 14.945312 38.492188 14.464844 38.171875 C 13.984375 37.851562 13.519531 37.507812 13.074219 37.140625 C 12.628906 36.773438 12.199219 36.386719 11.792969 35.976562 C 11.382812 35.570312 10.996094 35.144531 10.628906 34.695312 C 10.261719 34.25 9.921875 33.785156 9.597656 33.304688 C 9.277344 32.828125 8.980469 32.332031 8.710938 31.820312 C 8.4375 31.3125 8.191406 30.792969 7.96875 30.257812 C 7.75 29.722656 7.554688 29.179688 7.386719 28.628906 C 7.21875 28.074219 7.078125 27.515625 6.964844 26.949219 C 6.855469 26.382812 6.769531 25.8125 6.710938 25.238281 C 6.65625 24.664062 6.628906 24.085938 6.628906 23.511719 C 6.628906 22.933594 6.65625 22.355469 6.710938 21.78125 C 6.769531 21.207031 6.855469 20.636719 6.964844 20.070312 C 7.078125 19.503906 7.21875 18.945312 7.386719 18.390625 C 7.554688 17.839844 7.75 17.296875 7.96875 16.761719 C 8.191406 16.230469 8.4375 15.707031 8.710938 15.199219 C 8.980469 14.6875 9.277344 14.195312 9.597656 13.714844 C 9.921875 13.234375 10.261719 12.769531 10.628906 12.324219 C 10.996094 11.878906 11.382812 11.449219 11.792969 11.042969 C 12.199219 10.632812 12.628906 10.246094 13.074219 9.878906 C 13.519531 9.511719 13.984375 9.171875 14.464844 8.847656 C 14.945312 8.527344 15.4375 8.230469 15.949219 7.960938 C 16.457031 7.6875 16.980469 7.441406 17.511719 7.21875 C 18.046875 7 18.589844 6.804688 19.140625 6.636719 C 19.695312 6.46875 20.253906 6.328125 20.820312 6.214844 C 21.386719 6.105469 21.957031 6.019531 22.53125 5.960938 C 23.105469 5.90625 23.683594 5.878906 24.261719 5.878906 C 24.835938 5.878906 25.414062 5.90625 25.988281 5.960938 C 26.5625 6.019531 27.132812 6.105469 27.699219 6.214844 C 28.265625 6.328125 28.824219 6.46875 29.378906 6.636719 C 29.929688 6.804688 30.472656 7 31.007812 7.21875 C 31.542969 7.441406 32.0625 7.6875 32.570312 7.960938 C 33.082031 8.230469 33.578125 8.527344 34.054688 8.847656 C 34.535156 9.171875 35 9.511719 35.445312 9.878906 C 35.894531 10.246094 36.320312 10.632812 36.726562 11.042969 C 37.136719 11.449219 37.523438 11.878906 37.890625 12.324219 C 38.257812 12.769531 38.601562 13.234375 38.921875 13.714844 C 39.242188 14.195312 39.539062 14.6875 39.8125 15.199219 C 40.082031 15.707031 40.328125 16.230469 40.550781 16.761719 C 40.773438 17.296875 40.964844 17.839844 41.132812 18.390625 C 41.300781 18.945312 41.441406 19.503906 41.554688 20.070312 C 41.667969 20.636719 41.75 21.207031 41.808594 21.78125 C 41.863281 22.355469 41.894531 22.933594 41.894531 23.511719 Z M 41.894531 23.511719 " fill-opacity="1" fill-rule="nonzero"/></svg>